<svg width="57" height="34" viewBox="0 0 57 34" fill="none" xmlns="http://www.w3.org/2000/svg">
<path d="M7.17416 20.6135C7.66553 20.6135 8.06391 21.0119 8.06391 21.5032V27.7377H9.4795C9.82839 24.6517 12.6129 22.4329 15.6987 22.7817C18.3041 23.0762 20.3601 25.1323 20.6547 27.7377H39.2051V1.93501H8.06391V4.73327C8.06391 5.22463 7.66553 5.62301 7.17416 5.62301C6.6828 5.62301 6.28442 5.22463 6.28442 4.73327V1.04526C6.28442 0.553902 6.6828 0.155518 7.17416 0.155518H40.0948C40.5862 0.155518 40.9846 0.553902 40.9846 1.04526V1.93501H51.1739C53.4075 1.9379 55.2176 3.74787 55.2205 5.98158V7.27349C55.2205 7.76486 54.8221 8.16324 54.3308 8.16324H53.296L53.9749 16.3178C55.7516 16.7802 56.9938 18.3815 57 20.2175V27.7377C57 28.229 56.6016 28.6274 56.1103 28.6274H54.3085C54.0646 31.8092 51.2875 34.1908 48.1058 33.9469C45.263 33.729 43.0043 31.4702 42.7863 28.6274C42.7783 28.6274 42.7721 28.6319 42.764 28.6319H40.9846C40.9846 29.1232 40.5862 29.5216 40.0948 29.5216H20.5738C19.9399 32.5629 16.9606 34.5144 13.9193 33.8806C11.7287 33.424 10.017 31.7123 9.56046 29.5216H7.17416C6.6828 29.5216 6.28442 29.1232 6.28442 28.6319V21.5032C6.28442 21.0117 6.6828 20.6135 7.17416 20.6135ZM48.5474 32.1864C50.7586 32.1864 52.5513 30.3938 52.5513 28.1826C52.5513 25.9713 50.7586 24.1787 48.5474 24.1787C46.3362 24.1787 44.5435 25.9713 44.5435 28.1826C44.546 30.3928 46.3372 32.184 48.5474 32.1864ZM40.9846 26.8479H42.764C42.8162 26.8534 42.8678 26.8637 42.918 26.8791C43.6336 23.7702 46.7339 21.8301 49.8427 22.5457C51.9863 23.039 53.6636 24.7071 54.1688 26.8479H55.2205V20.2175C55.2191 18.9661 54.2049 17.9519 52.9534 17.9505H40.9846V26.8479ZM40.9846 16.171H52.1776L51.5103 8.16324H40.9846V16.171ZM40.9846 6.38375H53.441V5.98158C53.4396 4.73015 52.4254 3.71595 51.1739 3.71451H40.9846V6.38375ZM11.2275 28.5918C11.3419 30.6274 13.0276 32.2183 15.0662 32.2149H15.0671C16.9339 32.2108 18.5279 30.8663 18.8468 29.0269C18.6908 28.7544 18.7086 28.4159 18.8921 28.1612C18.7732 26.0447 16.961 24.4253 14.8445 24.5442C12.728 24.663 11.1085 26.4752 11.2275 28.5918Z" fill="#FE0E36"/>
<path d="M8.06395 7.27349H20.5204C21.0118 7.27349 21.4102 7.67188 21.4102 8.16324C21.4102 8.6546 21.0118 9.05299 20.5204 9.05299H8.06395C7.57259 9.05299 7.1742 8.6546 7.1742 8.16324C7.1742 7.67188 7.57259 7.27349 8.06395 7.27349Z" fill="#FC8D0D"/>
<path d="M6.28484 17.0607H25.8593C26.3506 17.0607 26.749 17.4591 26.749 17.9505C26.749 18.4418 26.3506 18.8402 25.8593 18.8402H6.28484C5.79348 18.8402 5.39509 18.4418 5.39509 17.9505C5.39509 17.4591 5.79348 17.0607 6.28484 17.0607Z" fill="#FC8D0D"/>
<path d="M8.06425 11.7222H17.8515C18.3428 11.7222 18.7412 12.1206 18.7412 12.612C18.7412 13.1033 18.3428 13.5017 17.8515 13.5017H8.06425C7.57288 13.5017 7.1745 13.1033 7.1745 12.612C7.1745 12.1206 7.57288 11.7222 8.06425 11.7222Z" fill="#FC8D0D"/>
<path d="M4.50478 9.05299H2.72529C2.23393 9.05299 1.83554 8.6546 1.83554 8.16324C1.83554 7.67188 2.23393 7.27349 2.72529 7.27349H4.50478C4.99615 7.27349 5.39453 7.67188 5.39453 8.16324C5.39453 8.6546 4.99615 9.05299 4.50478 9.05299Z" fill="#FC8D0D"/>
<path d="M1.83564 17.0607H3.61514C4.1065 17.0607 4.50488 17.4591 4.50488 17.9505C4.50488 18.4418 4.1065 18.8402 3.61514 18.8402H1.83564C1.34428 18.8402 0.945894 18.4418 0.945894 17.9505C0.945894 17.4591 1.34428 17.0607 1.83564 17.0607Z" fill="#FC8D0D"/>
<path d="M0.945796 11.7222H4.50478C4.99615 11.7222 5.39453 12.1206 5.39453 12.612C5.39453 13.1033 4.99615 13.5017 4.50478 13.5017H0.945796C0.454433 13.5017 0.0560489 13.1033 0.0560489 12.612C0.0560489 12.1206 0.454433 11.7222 0.945796 11.7222Z" fill="#FC8D0D"/>
</svg>
