<svg width="37" height="42" viewBox="0 0 37 42" fill="none" xmlns="http://www.w3.org/2000/svg">
<path d="M31.0248 5.32306C27.5923 1.89024 23.0284 0 18.1741 0C13.3195 0 8.75555 1.89056 5.32306 5.32306C1.89056 8.75555 0 13.3195 0 18.1738C0 23.0284 1.89056 27.5923 5.32306 31.0248L14.9784 40.6805C15.8295 41.5312 16.9641 42 18.1738 42C19.3831 42 20.5177 41.5312 21.3688 40.6805L31.0248 31.0248C34.4576 27.5923 36.3479 23.0284 36.3479 18.1738C36.3479 13.3195 34.4573 8.75555 31.0248 5.32306ZM29.2848 29.2845L19.6285 38.9405C19.2427 39.3263 18.7259 39.5391 18.1738 39.5391C17.6217 39.5391 17.1048 39.3263 16.7187 38.9405L7.06334 29.2845C4.09547 26.317 2.46094 22.3708 2.46094 18.1738C2.46094 13.9767 4.09547 10.0309 7.06334 7.06302C10.0312 4.09547 13.9767 2.46094 18.1741 2.46094C22.3711 2.46094 26.317 4.09547 29.2848 7.06302C35.4112 13.1897 35.4112 23.1584 29.2848 29.2845Z" fill="#FE0E36"/>
<path d="M18.1745 11.6715C14.5888 11.6715 11.6719 14.5884 11.6719 18.1741C11.6719 21.7594 14.5888 24.6763 18.1745 24.6763C21.7598 24.6763 24.6767 21.7594 24.6767 18.1741C24.6767 14.5884 21.7598 11.6715 18.1745 11.6715ZM18.1745 22.2154C15.9458 22.2154 14.1328 20.4024 14.1328 18.1738C14.1328 15.9455 15.9458 14.1324 18.1745 14.1324C20.4028 14.1324 22.2158 15.9455 22.2158 18.1738C22.2158 20.4024 20.4028 22.2154 18.1745 22.2154Z" fill="#FC8D0D"/>
</svg>
