<svg width="36" height="28" viewBox="0 0 36 28" fill="none" xmlns="http://www.w3.org/2000/svg">
<path d="M31.6052 0H4.40223C1.97393 0 0 1.97393 0 4.40223V22.9944C0 25.4227 1.97393 27.3966 4.40223 27.3966H31.5977C34.0261 27.3966 36 25.4227 36 22.9944V4.40968C36.0074 1.98138 34.0335 0 31.6052 0ZM33.9963 22.9944C33.9963 24.3128 32.9236 25.3855 31.6052 25.3855H4.40223C3.0838 25.3855 2.01117 24.3128 2.01117 22.9944V4.40968C2.01117 3.09125 3.0838 2.01862 4.40223 2.01862H31.5977C32.9162 2.01862 33.9888 3.09125 33.9888 4.40968V22.9944H33.9963Z" fill="#FE0E36"/>
<path d="M22.7043 13.4674L31.5088 5.57169C31.9185 5.19925 31.9557 4.5661 31.5833 4.14897C31.2109 3.73929 30.5777 3.70204 30.1606 4.07448L18.0191 14.9721L15.6503 12.8566C15.6429 12.8492 15.6354 12.8417 15.6354 12.8343C15.5833 12.7821 15.5312 12.7374 15.4716 12.6927L5.83284 4.06703C5.41571 3.69459 4.78257 3.73184 4.41013 4.14897C4.03769 4.5661 4.07493 5.19925 4.49206 5.57169L13.4008 13.5344L4.52931 21.8398C4.12707 22.2197 4.10473 22.8529 4.48461 23.2626C4.68573 23.4711 4.95389 23.5829 5.22204 23.5829C5.46785 23.5829 5.71366 23.4935 5.90733 23.3147L14.9129 14.8901L17.3561 17.0726C17.5498 17.2439 17.7881 17.3259 18.0265 17.3259C18.2649 17.3259 18.5107 17.2365 18.6969 17.0652L21.2071 14.8156L30.1606 23.3221C30.3542 23.5084 30.6075 23.5977 30.8533 23.5977C31.1215 23.5977 31.3822 23.4935 31.5833 23.2849C31.9632 22.8827 31.9483 22.2421 31.5461 21.8622L22.7043 13.4674Z" fill="#FC8D0D"/>
</svg>
