<svg width="42" height="42" viewBox="0 0 42 42" fill="none" xmlns="http://www.w3.org/2000/svg">
<path d="M33.1627 26.0175C32.3029 25.1222 31.2657 24.6435 30.1665 24.6435C29.0762 24.6435 28.0302 25.1133 27.1349 26.0086L24.3338 28.8009C24.1033 28.6768 23.8728 28.5616 23.6512 28.4463C23.3321 28.2868 23.0307 28.1361 22.7736 27.9765C20.1498 26.31 17.7653 24.1382 15.4782 21.3282C14.3702 19.9276 13.6256 18.7487 13.0849 17.552C13.8117 16.8872 14.4854 16.1957 15.1414 15.5309C15.3896 15.2827 15.6378 15.0256 15.886 14.7774C17.7475 12.9159 17.7475 10.5048 15.886 8.64327L13.466 6.2233C13.1912 5.9485 12.9076 5.66484 12.6416 5.38118C12.1098 4.83159 11.5513 4.26427 10.9751 3.7324C10.1153 2.88142 9.08702 2.42934 8.00556 2.42934C6.92411 2.42934 5.87811 2.88142 4.99167 3.7324C4.98281 3.74127 4.98281 3.74127 4.97394 3.75013L1.96005 6.79062C0.825406 7.92526 0.178306 9.3081 0.0364757 10.9126C-0.17627 13.501 0.586068 15.9121 1.17112 17.4899C2.60715 21.3637 4.75233 24.9538 7.95238 28.8009C11.835 33.437 16.5065 37.098 21.8429 39.6775C23.8817 40.6437 26.6031 41.7872 29.6435 41.9823C29.8297 41.9911 30.0247 42 30.202 42C32.2497 42 33.9694 41.2642 35.3168 39.8016C35.3256 39.7839 35.3433 39.775 35.3522 39.7573C35.8132 39.1988 36.345 38.6936 36.9035 38.1528C37.2846 37.7894 37.6747 37.4082 38.0559 37.0093C38.9334 36.0963 39.3944 35.0326 39.3944 33.9422C39.3944 32.8431 38.9246 31.7882 38.0293 30.9018L33.1627 26.0175ZM36.3362 35.3517C36.3273 35.3605 36.3273 35.3517 36.3362 35.3517C35.9904 35.724 35.6359 36.0608 35.2547 36.4331C34.6785 36.9827 34.0935 37.5589 33.5439 38.206C32.6486 39.1634 31.5937 39.6155 30.2109 39.6155C30.0779 39.6155 29.9361 39.6155 29.8031 39.6066C27.1704 39.4382 24.7238 38.4099 22.8889 37.5323C17.8716 35.1035 13.466 31.6552 9.80504 27.2851C6.78228 23.6418 4.7612 20.2734 3.42267 16.6567C2.59829 14.4495 2.2969 12.7298 2.42986 11.1076C2.51851 10.0704 2.9174 9.2106 3.65315 8.47485L6.6759 5.45209C7.11026 5.04433 7.57121 4.82272 8.02329 4.82272C8.58175 4.82272 9.03383 5.15957 9.31749 5.44323C9.32636 5.45209 9.33522 5.46096 9.34409 5.46982C9.88481 5.97509 10.3989 6.49809 10.9397 7.05655C11.2145 7.34021 11.4981 7.62387 11.7818 7.9164L14.2018 10.3364C15.1414 11.276 15.1414 12.1447 14.2018 13.0843C13.9447 13.3414 13.6965 13.5985 13.4394 13.8467C12.6948 14.609 11.9857 15.3182 11.2145 16.0096C11.1967 16.0273 11.179 16.0362 11.1702 16.0539C10.4078 16.8162 10.5496 17.5609 10.7092 18.0661C10.7181 18.0927 10.7269 18.1193 10.7358 18.1459C11.3652 19.6706 12.2516 21.1066 13.599 22.8174L13.6079 22.8263C16.0544 25.8402 18.634 28.1893 21.4794 29.9887C21.8429 30.2192 22.2152 30.4054 22.5698 30.5826C22.8889 30.7422 23.1903 30.8929 23.4473 31.0525C23.4828 31.0702 23.5182 31.0968 23.5537 31.1145C23.8551 31.2652 24.1388 31.3361 24.4313 31.3361C25.167 31.3361 25.628 30.8752 25.7787 30.7245L28.8103 27.6929C29.1117 27.3915 29.5904 27.028 30.1488 27.028C30.6984 27.028 31.1505 27.3737 31.4253 27.6751C31.4342 27.684 31.4342 27.684 31.443 27.6929L36.3273 32.5771C37.2403 33.4813 37.2403 34.4121 36.3362 35.3517Z" fill="#FE0E36"/>
<path d="M22.6676 9.99066C24.9901 10.3807 27.0998 11.4799 28.7841 13.1641C30.4683 14.8483 31.5586 16.9581 31.9575 19.2805C32.055 19.8656 32.5603 20.2734 33.1365 20.2734C33.2074 20.2734 33.2695 20.2645 33.3404 20.2556C33.9963 20.1493 34.4307 19.5287 34.3243 18.8728C33.8456 16.0628 32.516 13.501 30.486 11.471C28.4561 9.44107 25.8943 8.11141 23.0843 7.63274C22.4283 7.52636 21.8167 7.96072 21.7014 8.60782C21.5862 9.25492 22.0117 9.88429 22.6676 9.99066Z" fill="#FC8D0D"/>
<path d="M41.9203 18.5271C41.1314 13.8999 38.9508 9.68929 35.6 6.33856C32.2493 2.98782 28.0387 0.807175 23.4115 0.0182442C22.7644 -0.0969929 22.1527 0.346227 22.0375 0.993327C21.9311 1.64929 22.3655 2.26094 23.0214 2.37617C27.1523 3.07646 30.9196 5.03549 33.9158 8.02279C36.9119 11.019 38.8621 14.7863 39.5624 18.9171C39.6599 19.5022 40.1652 19.9099 40.7414 19.9099C40.8123 19.9099 40.8743 19.9011 40.9452 19.8922C41.5923 19.7947 42.0356 19.1742 41.9203 18.5271Z" fill="#FC8D0D"/>
</svg>
