<svg width="39" height="39" viewBox="0 0 39 39" fill="none" xmlns="http://www.w3.org/2000/svg">
<path d="M19.5 0C8.74789 0 0 8.74789 0 19.5C0 30.2521 8.74789 39 19.5 39C30.2521 39 39 30.2521 39 19.5C39 8.74789 30.2521 0 19.5 0ZM19.5 36.5625C10.0916 36.5625 2.43751 28.9084 2.43751 19.5C2.43751 10.0916 10.0916 2.43751 19.5 2.43751C28.9084 2.43751 36.5625 10.0916 36.5625 19.5C36.5625 28.9084 28.9084 36.5625 19.5 36.5625Z" fill="#FE0E36"/>
<path d="M20.7188 7.31256H18.2812V20.0047L25.9508 27.6742L27.6742 25.9508L20.7188 18.9954V7.31256Z" fill="#FC8D0D"/>
</svg>
