<svg width="25" height="16" viewBox="0 0 25 16" fill="none" xmlns="http://www.w3.org/2000/svg">
<path fill-rule="evenodd" clip-rule="evenodd" d="M24.0664 1.93818C24.2377 1.36729 24.0664 0.947685 23.2515 0.947685H20.5568C19.8715 0.947685 19.5559 1.31012 19.3846 1.7099C19.3846 1.7099 18.0141 5.04999 16.0728 7.21962C15.4447 7.84768 15.1593 8.04728 14.8167 8.04728C14.6454 8.04728 14.3974 7.84768 14.3974 7.27679V1.93818C14.3974 1.25296 14.1986 0.947685 13.6275 0.947685H9.39298C8.96491 0.947685 8.70737 1.26566 8.70737 1.56708C8.70737 2.2167 9.67785 2.36645 9.77794 4.19346V8.1618C9.77794 9.03181 9.62088 9.18964 9.27826 9.18964C8.36476 9.18964 6.14278 5.83435 4.82468 1.99535C4.56638 1.24911 4.3073 0.947685 3.61861 0.947685H0.9239C0.153983 0.947685 0 1.31012 0 1.7099C0 2.42362 0.913698 5.96369 4.25379 10.6456C6.48077 13.8426 9.6178 15.5761 12.4727 15.5761C14.1857 15.5761 14.3974 15.1911 14.3974 14.5281V12.1115C14.3974 11.3416 14.5597 11.188 15.1019 11.188C15.5019 11.188 16.1869 11.3878 17.7858 12.9293C19.6129 14.7561 19.9139 15.5761 20.9417 15.5761H23.6364C24.4064 15.5761 24.7913 15.1911 24.5692 14.4314C24.3263 13.6742 23.454 12.5759 22.2964 11.2736C21.6683 10.5312 20.7262 9.73186 20.4409 9.33227C20.0411 8.81835 20.1553 8.59007 20.4409 8.13351C20.4409 8.13351 23.7238 3.50862 24.0664 1.93838V1.93818Z" fill="#FE0E36"/>
</svg>
