<svg width="25" height="25" viewBox="0 0 25 25" fill="none" xmlns="http://www.w3.org/2000/svg">
<path d="M18.4984 14.3655C18.4497 14.3421 16.6271 13.4446 16.3033 13.328C16.171 13.2806 16.0294 13.2342 15.8787 13.2342C15.6326 13.2342 15.4259 13.3569 15.2649 13.5978C15.0828 13.8684 14.5317 14.5126 14.3614 14.7051C14.3391 14.7305 14.3088 14.7608 14.2906 14.7608C14.2743 14.7608 13.9922 14.6447 13.9068 14.6076C11.9517 13.7583 10.4677 11.716 10.2642 11.3716C10.2352 11.3221 10.2339 11.2996 10.2337 11.2996C10.2408 11.2734 10.3066 11.2075 10.3405 11.1735C10.4398 11.0753 10.5473 10.9458 10.6514 10.8206C10.7007 10.7612 10.75 10.7018 10.7985 10.6458C10.9494 10.4702 11.0166 10.3338 11.0946 10.1758L11.1354 10.0938C11.3257 9.71578 11.1632 9.39679 11.1106 9.29378C11.0675 9.20758 10.298 7.35028 10.2162 7.15515C10.0194 6.68429 9.75942 6.46505 9.39814 6.46505C9.36462 6.46505 9.39814 6.46505 9.25756 6.47097C9.08637 6.4782 8.15415 6.60093 7.74197 6.86075C7.30488 7.13632 6.56543 8.01473 6.56543 9.55953C6.56543 10.9499 7.44774 12.2626 7.82655 12.7619C7.83597 12.7745 7.85325 12.8 7.87834 12.8367C9.32907 14.9554 11.1376 16.5255 12.9709 17.2579C14.736 17.9629 15.5718 18.0444 16.0469 18.0444C16.047 18.0444 16.047 18.0444 16.047 18.0444C16.2467 18.0444 16.4065 18.0288 16.5475 18.0149L16.6369 18.0064C17.2467 17.9523 18.5866 17.258 18.8914 16.411C19.1315 15.7439 19.1948 15.015 19.0351 14.7504C18.9257 14.5706 18.7371 14.4801 18.4984 14.3655Z" fill="#FE0E36"/>
<path d="M12.7219 0C5.95112 0 0.442676 5.46705 0.442676 12.1869C0.442676 14.3604 1.02433 16.4879 2.1262 18.3499L0.0171889 24.5711C-0.0220968 24.6871 0.007124 24.8153 0.0929195 24.9027C0.154851 24.9659 0.238861 25 0.324656 25C0.35753 25 0.390647 24.995 0.422952 24.9847L6.90997 22.9234C8.68513 23.8718 10.6915 24.3725 12.722 24.3725C19.4921 24.3726 25 18.9061 25 12.1869C25 5.46705 19.4921 0 12.7219 0ZM12.7219 21.8339C10.8113 21.8339 8.9607 21.2822 7.36995 20.2384C7.31646 20.2032 7.25436 20.1852 7.19186 20.1852C7.15883 20.1852 7.12571 20.1903 7.09349 20.2005L3.84389 21.2334L4.89292 18.1386C4.92685 18.0384 4.90988 17.9279 4.84738 17.8425C3.63602 16.1873 2.99568 14.2317 2.99568 12.1869C2.99568 6.86688 7.35883 2.53864 12.7218 2.53864C18.0842 2.53864 22.4468 6.86688 22.4468 12.1869C22.4469 17.5063 18.0843 21.8339 12.7219 21.8339Z" fill="#FE0E36"/>
</svg>
