<svg width="65" height="66" viewBox="0 0 65 66" fill="none" xmlns="http://www.w3.org/2000/svg">
<path d="M20.2313 19.25L21.7588 24.75H62.7277L65 19.25H20.2313ZM58.1831 35.75H24.8192L23.2917 30.25H60.4554L58.1831 35.75ZM41.9792 49.5C44.2217 49.5 46.0417 51.348 46.0417 53.625C46.0417 55.9048 44.2217 57.75 41.9792 57.75C39.7367 57.75 37.9167 55.9048 37.9167 53.625C37.9167 51.348 39.7367 49.5 41.9792 49.5ZM11.3615 8.25L20.6565 41.25H55.9108L53.6385 46.75H16.6454L7.23667 13.75H2.01229L0 8.25H11.3615ZM28.4375 49.5C30.68 49.5 32.5 51.3452 32.5 53.625C32.5 55.9048 30.68 57.75 28.4375 57.75C26.195 57.75 24.375 55.9048 24.375 53.625C24.375 51.348 26.195 49.5 28.4375 49.5Z" fill="black"/>
</svg>
