<svg width="66" height="40" viewBox="0 0 66 40" fill="none" xmlns="http://www.w3.org/2000/svg">
<path d="M8.32013 23.7526C8.88627 23.7526 9.34528 24.2115 9.34528 24.7775V31.9591H10.9763C11.3783 28.4043 14.5865 25.8484 18.142 26.2502C21.144 26.5895 23.5128 28.9579 23.8523 31.9591H45.2258V2.23681H9.34528V5.46013C9.34528 6.02614 8.88627 6.48504 8.32013 6.48504C7.75398 6.48504 7.29497 6.02614 7.29497 5.46013V1.2119C7.29497 0.645898 7.75398 0.186996 8.32013 0.186996H46.251C46.8171 0.186996 47.2761 0.645898 47.2761 1.2119V2.23681H59.0163C61.5898 2.24014 63.6754 4.32505 63.6787 6.89808V8.38624C63.6787 8.95224 63.2197 9.41114 62.6535 9.41114H61.4613L62.2435 18.8044C64.2906 19.3371 65.7218 21.1817 65.729 23.2966V31.9591C65.729 32.5251 65.27 32.984 64.7038 32.984H62.6279C62.3469 36.649 59.1471 39.3924 55.4811 39.1115C52.2058 38.8605 49.6033 36.2585 49.3521 32.984C49.3429 32.984 49.3357 32.9891 49.3265 32.9891H47.2761C47.2761 33.5551 46.8171 34.014 46.251 34.014H23.759C23.0287 37.5173 19.596 39.7652 16.0919 39.0351C13.5678 38.5092 11.5956 36.5374 11.0696 34.014H8.32013C7.75398 34.014 7.29497 33.5551 7.29497 32.9891V24.7775C7.29497 24.2114 7.75398 23.7526 8.32013 23.7526ZM55.99 37.0836C58.5378 37.0836 60.6032 35.0187 60.6032 32.4715C60.6032 29.9244 58.5378 27.8594 55.99 27.8594C53.4422 27.8594 51.3768 29.9244 51.3768 32.4715C51.3796 35.0175 53.4434 37.0808 55.99 37.0836ZM47.2761 30.9342H49.3265C49.3866 30.9404 49.446 30.9524 49.5038 30.97C50.3283 27.3889 53.9005 25.1541 57.4824 25.9784C59.9522 26.5467 61.8848 28.4681 62.4669 30.9342H63.6787V23.2966C63.677 21.855 62.5085 20.6868 61.0666 20.6851H47.2761V30.9342ZM47.2761 18.6353H60.1726L59.4038 9.41114H47.2761V18.6353ZM47.2761 7.36133H61.6284V6.89808C61.6267 5.45655 60.4582 4.28828 59.0163 4.28662H47.2761V7.36133ZM12.9904 32.943C13.1221 35.2877 15.0644 37.1204 17.4133 37.1164H17.4143C19.5652 37.1116 21.4018 35.5629 21.7692 33.4441C21.5895 33.1303 21.61 32.7403 21.8215 32.4469C21.6845 30.0089 19.5965 28.1435 17.1578 28.2804C14.7192 28.4174 12.8532 30.5049 12.9904 32.943Z" fill="#FE0E36"/>
<path d="M9.34528 8.38624H23.6975C24.2636 8.38624 24.7227 8.84514 24.7227 9.41114C24.7227 9.97715 24.2636 10.436 23.6975 10.436H9.34528C8.77914 10.436 8.32013 9.97715 8.32013 9.41114C8.32013 8.84514 8.77914 8.38624 9.34528 8.38624Z" fill="#FE0E36"/>
<path d="M7.29497 19.6602H29.8485C30.4146 19.6602 30.8736 20.1191 30.8736 20.6851C30.8736 21.2511 30.4146 21.71 29.8485 21.71H7.29497C6.72882 21.71 6.26981 21.2511 6.26981 20.6851C6.26981 20.1191 6.72882 19.6602 7.29497 19.6602Z" fill="#FE0E36"/>
<path d="M9.34528 13.5108H20.622C21.1882 13.5108 21.6472 13.9697 21.6472 14.5357C21.6472 15.1017 21.1882 15.5606 20.622 15.5606H9.34528C8.77914 15.5606 8.32013 15.1017 8.32013 14.5357C8.32013 13.9697 8.77914 13.5108 9.34528 13.5108Z" fill="#FE0E36"/>
<path d="M5.24465 10.436H3.19433C2.62819 10.436 2.16917 9.97715 2.16917 9.41114C2.16917 8.84514 2.62819 8.38624 3.19433 8.38624H5.24465C5.81079 8.38624 6.26981 8.84514 6.26981 9.41114C6.26981 9.97715 5.81079 10.436 5.24465 10.436Z" fill="#FE0E36"/>
<path d="M2.16917 19.6602H4.21949C4.78564 19.6602 5.24465 20.1191 5.24465 20.6851C5.24465 21.2511 4.78564 21.71 4.21949 21.71H2.16917C1.60303 21.71 1.14402 21.2511 1.14402 20.6851C1.14402 20.1191 1.60303 19.6602 2.16917 19.6602Z" fill="#FE0E36"/>
<path d="M1.14402 13.5108H5.24465C5.81079 13.5108 6.26981 13.9697 6.26981 14.5357C6.26981 15.1017 5.81079 15.5606 5.24465 15.5606H1.14402C0.577873 15.5606 0.118858 15.1017 0.118858 14.5357C0.118858 13.9697 0.577873 13.5108 1.14402 13.5108Z" fill="#FE0E36"/>
</svg>
