<svg width="62" height="41" viewBox="0 0 62 41" fill="none" xmlns="http://www.w3.org/2000/svg">
<path d="M5.58792 40.1236H56.3011C57.6456 40.1221 58.9346 39.5957 59.8854 38.6598C60.8361 37.7239 61.3709 36.4551 61.3724 35.1315V5.17907C61.3709 3.85555 60.8361 2.58666 59.8854 1.65078C58.9346 0.714909 57.6456 0.188483 56.3011 0.186996H5.58792C4.24338 0.188483 2.95435 0.714909 2.00362 1.65078C1.05289 2.58666 0.518112 3.85555 0.516602 5.17907V35.1315C0.518112 36.4551 1.05289 37.7239 2.00362 38.6598C2.95435 39.5957 4.24338 40.1221 5.58792 40.1236ZM2.54513 5.17907C2.54607 4.38497 2.86695 3.62365 3.43738 3.06214C4.00781 2.50062 4.78121 2.18475 5.58792 2.18383H56.3011C57.1078 2.18475 57.8812 2.50062 58.4516 3.06214C59.022 3.62365 59.3429 4.38497 59.3439 5.17907V35.1315C59.3429 35.9256 59.022 36.6869 58.4516 37.2485C57.8812 37.81 57.1078 38.1258 56.3011 38.1268H5.58792C4.78121 38.1258 4.00781 37.81 3.43738 37.2485C2.86695 36.6869 2.54607 35.9256 2.54513 35.1315V5.17907Z" fill="#FE0E36"/>
<path d="M9.64497 16.1616H13.702C14.5087 16.1607 15.2821 15.8448 15.8526 15.2833C16.423 14.7218 16.7439 13.9605 16.7448 13.1664V9.17273C16.7439 8.37863 16.423 7.61731 15.8526 7.0558C15.2821 6.49428 14.5087 6.17841 13.702 6.17749H9.64497C8.83826 6.17841 8.06486 6.49428 7.49443 7.0558C6.924 7.61731 6.60312 8.37863 6.60218 9.17273V13.1664C6.60312 13.9605 6.924 14.7218 7.49443 15.2833C8.06486 15.8448 8.83826 16.1607 9.64497 16.1616ZM9.64497 8.17432H13.702C13.9709 8.17461 14.2287 8.2799 14.4189 8.46708C14.609 8.65425 14.716 8.90803 14.7163 9.17273V10.1711H13.702C13.433 10.1711 13.175 10.2763 12.9848 10.4636C12.7946 10.6508 12.6878 10.9048 12.6878 11.1696C12.6878 11.4344 12.7946 11.6883 12.9848 11.8756C13.175 12.0628 13.433 12.168 13.702 12.168H14.7163V13.1664C14.716 13.4311 14.609 13.6849 14.4189 13.8721C14.2287 14.0592 13.9709 14.1645 13.702 14.1648H9.64497C9.37606 14.1645 9.11826 14.0592 8.92811 13.8721C8.73796 13.6849 8.63101 13.4311 8.63071 13.1664V12.168H9.64497C9.91397 12.168 10.1719 12.0628 10.3622 11.8756C10.5524 11.6883 10.6592 11.4344 10.6592 11.1696C10.6592 10.9048 10.5524 10.6508 10.3622 10.4636C10.1719 10.2763 9.91397 10.1711 9.64497 10.1711H8.63071V9.17273C8.63101 8.90803 8.73796 8.65425 8.92811 8.46708C9.11826 8.2799 9.37606 8.17461 9.64497 8.17432Z" fill="#FE0E36"/>
<path d="M7.61644 30.1395H22.8304C23.0994 30.1395 23.3574 30.0343 23.5476 29.847C23.7378 29.6598 23.8447 29.4058 23.8447 29.141C23.8447 28.8762 23.7378 28.6223 23.5476 28.435C23.3574 28.2478 23.0994 28.1426 22.8304 28.1426H7.61644C7.34744 28.1426 7.08946 28.2478 6.89925 28.435C6.70904 28.6223 6.60218 28.8762 6.60218 29.141C6.60218 29.4058 6.70904 29.6598 6.89925 29.847C7.08946 30.0343 7.34744 30.1395 7.61644 30.1395Z" fill="#FE0E36"/>
<path d="M7.61644 34.1331L27.9017 34.1339C28.1707 34.1339 28.4287 34.0287 28.6189 33.8414C28.8091 33.6542 28.916 33.4002 28.916 33.1354C28.916 32.8707 28.8091 32.6167 28.6189 32.4295C28.4287 32.2422 28.1707 32.137 27.9017 32.137L7.61644 32.1363C7.34744 32.1363 7.08946 32.2415 6.89925 32.4287C6.70904 32.6159 6.60218 32.8699 6.60218 33.1347C6.60218 33.3995 6.70904 33.6534 6.89925 33.8407C7.08946 34.0279 7.34744 34.1331 7.61644 34.1331Z" fill="#FE0E36"/>
<path d="M47.1727 36.1299C48.0629 36.1306 48.9373 35.8991 49.7071 35.459C50.478 35.898 51.3527 36.1294 52.2432 36.1299C53.1338 36.1305 54.0088 35.9002 54.7803 35.4622C55.5517 35.0242 56.1924 34.3939 56.6378 33.6348C57.0833 32.8757 57.3178 32.0145 57.3178 31.1379C57.3178 30.2612 57.0833 29.4 56.6378 28.6409C56.1924 27.8818 55.5517 27.2515 54.7803 26.8135C54.0088 26.3755 53.1338 26.1452 52.2432 26.1458C51.3527 26.1464 50.478 26.3778 49.7071 26.8167C49.0335 26.4338 48.2795 26.2086 47.5034 26.1585C46.7273 26.1084 45.9498 26.2347 45.2312 26.5277C44.5126 26.8207 43.8722 27.2725 43.3593 27.8481C42.8465 28.4238 42.4751 29.1078 42.2739 29.8474C42.0726 30.587 42.0469 31.3622 42.1987 32.1131C42.3505 32.864 42.6758 33.5705 43.1494 34.1779C43.623 34.7852 44.2322 35.2772 44.9298 35.6157C45.6275 35.9542 46.3949 36.1301 47.1727 36.1299ZM55.2868 31.1379C55.287 31.6084 55.1746 32.0724 54.9585 32.4922C54.7425 32.912 54.429 33.2758 54.0434 33.5539C53.6578 33.8321 53.2111 34.0169 52.7394 34.0934C52.2677 34.1698 51.7843 34.1357 51.3285 33.9938C51.9244 33.157 52.244 32.1599 52.244 31.1379C52.244 30.116 51.9244 29.1189 51.3285 28.282C51.7843 28.1401 52.2677 28.1059 52.7394 28.1823C53.2111 28.2587 53.6579 28.4435 54.0435 28.7217C54.4291 28.9999 54.7426 29.3636 54.9586 29.7834C55.1747 30.2032 55.2871 30.6673 55.2868 31.1379ZM47.1727 28.1426C47.7745 28.1426 48.3628 28.3183 48.8632 28.6474C49.3636 28.9765 49.7536 29.4443 49.9839 29.9916C50.2142 30.5389 50.2744 31.1412 50.157 31.7222C50.0396 32.3032 49.7498 32.8369 49.3243 33.2558C48.8987 33.6747 48.3566 33.96 47.7663 34.0756C47.1761 34.1911 46.5643 34.1318 46.0083 33.9051C45.4523 33.6784 44.9771 33.2945 44.6427 32.8019C44.3084 32.3094 44.1299 31.7303 44.1299 31.1379C44.1309 30.3438 44.4517 29.5824 45.0222 29.0209C45.5926 28.4594 46.366 28.1435 47.1727 28.1426Z" fill="#FE0E36"/>
<path d="M52.8046 16.0562C52.9238 16.1149 53.0535 16.15 53.1863 16.1594C53.3192 16.1687 53.4527 16.1522 53.5791 16.1107C53.7055 16.0693 53.8223 16.0037 53.9229 15.9177C54.0235 15.8318 54.1059 15.7271 54.1654 15.6098C54.2113 15.5195 55.2868 13.3768 55.2868 11.1696C55.2868 8.96232 54.2113 6.81959 54.1654 6.72936C54.0441 6.49455 53.8333 6.31647 53.5792 6.23393C53.325 6.1514 53.048 6.17109 52.8085 6.28873C52.5691 6.40636 52.3865 6.6124 52.3007 6.86195C52.2149 7.11149 52.2327 7.38431 52.3504 7.62095C52.3595 7.63904 53.2583 9.44231 53.2583 11.1696C53.2583 12.8968 52.3595 14.7001 52.3511 14.7167C52.2308 14.9535 52.211 15.2277 52.2961 15.4789C52.3811 15.7301 52.5641 15.9377 52.8046 16.0562Z" fill="#FE0E36"/>
<path d="M44.427 13.8724C44.5211 13.9651 44.633 14.0387 44.756 14.0888C44.8791 14.139 45.011 14.1648 45.1442 14.1648C45.2774 14.1648 45.4093 14.139 45.5323 14.0888C45.6554 14.0387 45.7672 13.9651 45.8614 13.8724C45.9957 13.7405 47.1727 12.5424 47.1727 11.1696C47.1727 9.79674 45.9957 8.59864 45.8614 8.46673C45.6715 8.27912 45.4138 8.17343 45.1448 8.17292C44.8757 8.17241 44.6176 8.2771 44.427 8.46398C44.2364 8.65086 44.129 8.90462 44.1285 9.16942C44.128 9.43422 44.2343 9.68838 44.4242 9.87599C44.7145 10.1664 45.1442 10.7784 45.1442 11.1696C45.1442 11.5607 44.7145 12.1727 44.427 12.4604C44.3328 12.5531 44.2581 12.6632 44.2071 12.7843C44.1561 12.9054 44.1299 13.0353 44.1299 13.1664C44.1299 13.2975 44.1561 13.4273 44.2071 13.5485C44.2581 13.6696 44.3328 13.7797 44.427 13.8724Z" fill="#FE0E36"/>
<path d="M7.61644 22.1521H13.702C13.971 22.1521 14.229 22.0469 14.4192 21.8597C14.6094 21.6725 14.7163 21.4185 14.7163 21.1537C14.7163 20.8889 14.6094 20.635 14.4192 20.4477C14.229 20.2605 13.971 20.1553 13.702 20.1553H7.61644C7.34744 20.1553 7.08946 20.2605 6.89925 20.4477C6.70904 20.635 6.60218 20.8889 6.60218 21.1537C6.60218 21.4185 6.70904 21.6725 6.89925 21.8597C7.08946 22.0469 7.34744 22.1521 7.61644 22.1521Z" fill="#FE0E36"/>
<path d="M19.7876 22.1521H25.8732C26.1422 22.1521 26.4002 22.0469 26.5904 21.8597C26.7806 21.6725 26.8874 21.4185 26.8874 21.1537C26.8874 20.8889 26.7806 20.635 26.5904 20.4477C26.4002 20.2605 26.1422 20.1553 25.8732 20.1553H19.7876C19.5186 20.1553 19.2606 20.2605 19.0704 20.4477C18.8802 20.635 18.7733 20.8889 18.7733 21.1537C18.7733 21.4185 18.8802 21.6725 19.0704 21.8597C19.2606 22.0469 19.5186 22.1521 19.7876 22.1521Z" fill="#FE0E36"/>
<path d="M31.9588 22.1521H38.0443C38.3133 22.1521 38.5713 22.0469 38.7615 21.8597C38.9517 21.6725 39.0586 21.4185 39.0586 21.1537C39.0586 20.8889 38.9517 20.635 38.7615 20.4477C38.5713 20.2605 38.3133 20.1553 38.0443 20.1553H31.9588C31.6898 20.1553 31.4318 20.2605 31.2416 20.4477C31.0514 20.635 30.9445 20.8889 30.9445 21.1537C30.9445 21.4185 31.0514 21.6725 31.2416 21.8597C31.4318 22.0469 31.6898 22.1521 31.9588 22.1521Z" fill="#FE0E36"/>
<path d="M44.1299 22.1521H50.2155C50.4845 22.1521 50.7425 22.0469 50.9327 21.8597C51.1229 21.6725 51.2298 21.4185 51.2298 21.1537C51.2298 20.8889 51.1229 20.635 50.9327 20.4477C50.7425 20.2605 50.4845 20.1553 50.2155 20.1553H44.1299C43.8609 20.1553 43.6029 20.2605 43.4127 20.4477C43.2225 20.635 43.1157 20.8889 43.1157 21.1537C43.1157 21.4185 43.2225 21.6725 43.4127 21.8597C43.6029 22.0469 43.8609 22.1521 44.1299 22.1521Z" fill="#FE0E36"/>
<path d="M49.9184 7.46831C49.7282 7.28107 49.4702 7.17588 49.2012 7.17588C48.9322 7.17588 48.6742 7.28107 48.484 7.46831C48.2938 7.65556 48.1869 7.90951 48.1869 8.17432C48.1869 8.43912 48.2938 8.69308 48.484 8.88032C48.4911 8.88744 49.2012 9.65409 49.2012 11.1696C49.2012 12.685 48.5024 13.439 48.4727 13.4703L48.484 13.4588C48.2938 13.646 48.1869 13.9 48.1869 14.1648C48.1869 14.4296 48.2938 14.6836 48.484 14.8708C48.6742 15.0581 48.9322 15.1632 49.2012 15.1632C49.4702 15.1632 49.7282 15.0581 49.9184 14.8708C50.0527 14.7389 51.2298 13.5122 51.2298 11.1696C51.2298 8.82691 50.0527 7.60023 49.9184 7.46831Z" fill="#FE0E36"/>
</svg>
