<svg width="55" height="51" viewBox="0 0 55 51" fill="none" xmlns="http://www.w3.org/2000/svg">
<path d="M14.2256 48.7617H11.5607C10.9813 48.7617 10.5115 49.2245 10.5115 49.7953C10.5115 50.3661 10.9813 50.8288 11.5607 50.8288H14.2256C14.805 50.8288 15.2747 50.3661 15.2747 49.7953C15.2747 49.2245 14.805 48.7617 14.2256 48.7617Z" fill="#FE0E36"/>
<path d="M20.7933 48.7617H18.1285C17.5491 48.7617 17.0793 49.2245 17.0793 49.7953C17.0793 50.3661 17.5491 50.8288 18.1285 50.8288H20.7933C21.3727 50.8288 21.8425 50.3661 21.8425 49.7953C21.8425 49.2245 21.3727 48.7617 20.7933 48.7617Z" fill="#FE0E36"/>
<path d="M27.3611 48.7617H24.6962C24.1168 48.7617 23.647 49.2245 23.647 49.7953C23.647 50.3661 24.1168 50.8288 24.6962 50.8288H27.3611C27.9405 50.8288 28.4102 50.3661 28.4102 49.7953C28.4102 49.2245 27.9405 48.7617 27.3611 48.7617Z" fill="#FE0E36"/>
<path d="M33.9288 48.7617H31.264C30.6846 48.7617 30.2148 49.2245 30.2148 49.7953C30.2148 50.3661 30.6846 50.8288 31.264 50.8288H33.9288C34.5082 50.8288 34.978 50.3661 34.978 49.7953C34.978 49.2245 34.5082 48.7617 33.9288 48.7617Z" fill="#FE0E36"/>
<path d="M40.5176 48.7617H37.8527C37.2733 48.7617 36.8035 49.2245 36.8035 49.7953C36.8035 50.3661 37.2733 50.8288 37.8527 50.8288H40.5176C41.097 50.8288 41.5667 50.3661 41.5667 49.7953C41.5667 49.2245 41.097 48.7617 40.5176 48.7617Z" fill="#FE0E36"/>
<path d="M52.0583 0.432648H2.66381C1.33924 0.438332 0.267001 1.49463 0.26123 2.79949V12.0395C0.267001 13.3443 1.33924 14.4006 2.66381 14.4063H7.20668V49.7953C7.20668 50.3661 7.67644 50.8288 8.25584 50.8288C8.83524 50.8288 9.305 50.3661 9.305 49.7953V10.8509C9.305 9.50378 10.4136 8.4117 11.781 8.4117H43.686C43.2073 9.1379 42.9523 9.98503 42.9516 10.8509L42.8887 49.7953C42.8887 50.3661 43.3584 50.8288 43.9378 50.8288C44.5172 50.8288 44.987 50.3661 44.987 49.7953L45.0499 14.4167H52.0583C53.3829 14.411 54.4551 13.3547 54.4609 12.0498V2.79949C54.4551 1.49463 53.3829 0.438332 52.0583 0.432648ZM52.3626 2.79949V12.0498C52.3626 12.2153 52.2263 12.3496 52.0583 12.3496H45.0499V10.8509C45.0499 9.50378 46.1585 8.4117 47.526 8.4117H48.5751C49.1545 8.4117 49.6243 7.94893 49.6243 7.37815C49.6243 6.80736 49.1545 6.34459 48.5751 6.34459H5.88474C5.30534 6.34459 4.83558 6.80736 4.83558 7.37815C4.83558 7.94893 5.30534 8.4117 5.88474 8.4117H7.98306C7.49966 9.13622 7.24078 9.98387 7.23815 10.8509V12.3496H2.66381C2.49581 12.3496 2.35955 12.2153 2.35955 12.0498V2.79949C2.35955 2.63399 2.49581 2.49976 2.66381 2.49976H52.0583C52.2263 2.49976 52.3626 2.63399 52.3626 2.79949Z" fill="#FE0E36"/>
<path d="M26.7211 17.8791H14.9285C14.3491 17.8791 13.8793 18.3419 13.8793 18.9126C13.8793 19.4834 14.3491 19.9462 14.9285 19.9462H26.7211C27.3005 19.9462 27.7702 19.4834 27.7702 18.9126C27.7702 18.3419 27.3005 17.8791 26.7211 17.8791Z" fill="#FE0E36"/>
<path d="M37.1183 17.8791H31.264C30.6846 17.8791 30.2148 18.3419 30.2148 18.9126C30.2148 19.4834 30.6846 19.9462 31.264 19.9462H37.1183C37.6977 19.9462 38.1674 19.4834 38.1674 18.9126C38.1674 18.3419 37.6977 17.8791 37.1183 17.8791Z" fill="#FE0E36"/>
<path d="M26.7211 23.9047H14.9285C14.3491 23.9047 13.8793 24.3675 13.8793 24.9383C13.8793 25.509 14.3491 25.9718 14.9285 25.9718H26.7211C27.3005 25.9718 27.7702 25.509 27.7702 24.9383C27.7702 24.3675 27.3005 23.9047 26.7211 23.9047Z" fill="#FE0E36"/>
<path d="M37.1183 23.9047H31.264C30.6846 23.9047 30.2148 24.3675 30.2148 24.9383C30.2148 25.509 30.6846 25.9718 31.264 25.9718H37.1183C37.6977 25.9718 38.1674 25.509 38.1674 24.9383C38.1674 24.3675 37.6977 23.9047 37.1183 23.9047Z" fill="#FE0E36"/>
<path d="M26.7211 29.9407H14.9285C14.3491 29.9407 13.8793 30.4035 13.8793 30.9742C13.8793 31.545 14.3491 32.0078 14.9285 32.0078H26.7211C27.3005 32.0078 27.7702 31.545 27.7702 30.9742C27.7702 30.4035 27.3005 29.9407 26.7211 29.9407Z" fill="#FE0E36"/>
<path d="M37.1183 29.9407H31.264C30.6846 29.9407 30.2148 30.4035 30.2148 30.9742C30.2148 31.545 30.6846 32.0078 31.264 32.0078H37.1183C37.6977 32.0078 38.1674 31.545 38.1674 30.9742C38.1674 30.4035 37.6977 29.9407 37.1183 29.9407Z" fill="#FE0E36"/>
</svg>
