<svg width="31" height="31" viewBox="0 0 31 31" fill="none" xmlns="http://www.w3.org/2000/svg">
<path d="M15.1695 8.54715C11.3358 8.54715 8.2168 11.6661 8.2168 15.4998C8.2168 19.3336 11.3358 22.4525 15.1695 22.4525C19.0032 22.4525 22.1222 19.3336 22.1222 15.4998C22.1222 11.6661 19.0032 8.54715 15.1695 8.54715ZM15.1695 20.3457C12.4976 20.3457 10.3236 18.1719 10.3236 15.4998C10.3236 12.8278 12.4975 10.654 15.1695 10.654C17.8415 10.654 20.0154 12.8278 20.0154 15.4998C20.0154 18.1719 17.8414 20.3457 15.1695 20.3457Z" fill="#FE0E36"/>
<path d="M15.1695 11.8392C13.1509 11.8392 11.5088 13.4813 11.5088 15.4998C11.5088 17.5184 13.1509 19.1605 15.1695 19.1605C17.188 19.1605 18.8301 17.5184 18.8301 15.4998C18.8301 13.4813 17.188 11.8392 15.1695 11.8392ZM15.1695 17.0537C14.3127 17.0537 13.6156 16.3566 13.6156 15.4998C13.6156 14.6431 14.3127 13.946 15.1695 13.946C16.0262 13.946 16.7233 14.6431 16.7233 15.4998C16.7233 16.3566 16.0262 17.0537 15.1695 17.0537Z" fill="#FE0E36"/>
<path d="M29.8123 19.0305L27.9116 17.9331C28.0634 17.1337 28.14 16.3185 28.14 15.4997C28.14 14.681 28.0634 13.8657 27.9116 13.0664L29.8123 11.969C30.0542 11.8294 30.2307 11.5993 30.3031 11.3293C30.3754 11.0595 30.3375 10.7719 30.1979 10.53L26.9876 4.96955C26.6967 4.46583 26.0529 4.2932 25.5485 4.58399L23.6454 5.68265C22.4062 4.6129 20.9726 3.78384 19.4333 3.24735V1.05347C19.4333 0.471675 18.9616 0 18.3798 0H11.9592C11.3774 0 10.9057 0.471675 10.9057 1.05347V3.24766C9.36639 3.78415 7.93279 4.61311 6.69364 5.68296L4.79044 4.5842C4.28641 4.2932 3.6422 4.46594 3.35141 4.96976L0.141117 10.5302C0.00146157 10.7721 -0.0364269 11.0597 0.0359057 11.3295C0.108238 11.5994 0.284738 11.8295 0.526682 11.9692L2.42737 13.0666C2.27561 13.8659 2.199 14.6812 2.199 15.4999C2.199 16.3187 2.27561 17.134 2.42737 17.9333L0.526682 19.0307C0.284738 19.1703 0.108238 19.4004 0.0359057 19.6704C-0.0364269 19.9402 0.00146157 20.2278 0.141117 20.4697L3.35141 26.0301C3.64231 26.534 4.28631 26.7067 4.79044 26.4157L6.69364 25.317C7.93279 26.3868 9.36639 27.2158 10.9057 27.7523V29.9465C10.9057 30.5283 11.3774 31 11.9592 31H18.3798C18.9616 31 19.4333 30.5283 19.4333 29.9465V27.7523C20.9726 27.2158 22.4062 26.3869 23.6454 25.317L25.5485 26.4157C26.0527 26.7066 26.6968 26.5339 26.9876 26.0301L30.1979 20.4697C30.3375 20.2278 30.3754 19.9402 30.3031 19.6704C30.2307 19.4003 30.0542 19.1702 29.8123 19.0305ZM25.6953 12.8012C25.9194 13.6784 26.0331 14.5863 26.0331 15.4998C26.0331 16.4133 25.9194 17.3212 25.6953 18.1985C25.5783 18.6561 25.7803 19.1355 26.1892 19.3716L27.8465 20.3284L25.6897 24.0642L24.0292 23.1056C23.62 22.8695 23.1034 22.9344 22.7659 23.2649C21.4597 24.5429 19.845 25.4763 18.0966 25.9644C17.6413 26.0914 17.3264 26.5063 17.3264 26.979V28.8929H13.0127V26.979C13.0127 26.5063 12.6978 26.0914 12.2425 25.9644C10.494 25.4763 8.87938 24.543 7.57321 23.2649C7.23535 22.9344 6.71879 22.8695 6.30985 23.1056L4.64943 24.0642L2.4926 20.3284L4.14989 19.3716C4.55883 19.1355 4.7608 18.6561 4.6438 18.1985C4.4197 17.3213 4.30603 16.4133 4.30603 15.4998C4.30603 14.5863 4.4197 13.6785 4.6438 12.8012C4.7608 12.3436 4.55883 11.8642 4.14989 11.6281L2.4926 10.6713L4.64943 6.93548L6.30985 7.89407C6.71921 8.13027 7.23566 8.06524 7.57321 7.73479C8.87938 6.45681 10.4941 5.52337 12.2425 5.03531C12.6978 4.90828 13.0127 4.49339 13.0127 4.02067V2.10683H17.3264V4.02067C17.3264 4.49339 17.6413 4.90828 18.0966 5.03531C19.8451 5.52337 21.4597 6.4567 22.7659 7.73479C23.1039 8.06535 23.6203 8.13027 24.0292 7.89407L25.6897 6.93548L27.8465 10.6713L26.1892 11.6281C25.7804 11.8642 25.5784 12.3436 25.6953 12.8012Z" fill="#FE0E36"/>
</svg>
