<svg width="31" height="31" viewBox="0 0 31 31" fill="none" xmlns="http://www.w3.org/2000/svg">
<path d="M27.5867 24.7938H24.6131C24.782 24.3615 24.8666 23.9082 24.8666 23.4337C24.8666 23.2216 24.8494 23.0095 24.8251 22.7974L26.1179 24.0866C26.2267 24.1954 26.3355 24.2498 26.4987 24.2498C26.6075 24.2498 26.7707 24.1954 26.8795 24.141C31.7348 19.2377 32.2989 11.6587 28.5737 6.17007C28.626 6.12459 28.6776 6.07632 28.7292 6.02472C29.7629 4.93665 29.7629 3.25013 28.7292 2.16212C27.6412 1.12844 25.9003 1.12844 24.8666 2.16212C24.8132 2.2156 24.7597 2.28156 24.7063 2.35454C19.1903 -1.29153 11.6831 -0.703253 6.85922 4.12064C6.75039 4.22942 6.696 4.33826 6.696 4.50148C6.696 4.66471 6.75039 4.77348 6.85922 4.88232L16.1771 14.1739C15.728 14.7581 15.3899 15.4815 15.3293 16.3567C15.2386 16.281 15.1539 16.2076 15.074 16.1437C15.0196 16.0893 14.9652 16.0349 14.9107 15.9805C12.0818 13.5867 9.68802 13.478 8.11034 13.9132C7.94711 13.75 7.78389 13.6412 7.67511 13.478C7.34872 13.0971 6.91349 12.8251 6.36943 12.7707H6.31504H6.26065C6.20675 12.7793 6.15454 12.7889 6.1027 12.7989L4.79181 11.1931C4.62858 10.9754 4.68303 10.7578 4.68303 10.5946C4.73742 10.105 4.57419 9.61537 4.19341 9.23453C3.7038 8.74491 2.94212 8.63608 2.34373 8.96253C2.01734 9.12575 1.79973 9.34337 1.6365 9.66976C1.31011 9.77859 1.03805 9.94176 0.820437 10.2138C0.38521 10.7578 0.330821 11.5194 0.7116 12.1179C0.983601 12.5531 1.41883 12.8251 1.96289 12.8251C2.07173 12.8251 2.34373 12.8251 2.5069 13.0427L4.04412 14.8944C4.04376 14.9168 4.04363 14.939 4.04394 14.9611C4.03734 15.6181 4.30219 16.1601 4.30219 16.1982L4.35658 16.307C4.38965 16.3475 4.4212 16.3885 4.45342 16.4293C2.66237 18.439 0.930061 20.7179 1.31005 22.6178C1.49145 23.4159 1.81887 24.141 2.30666 24.7939H1.74528C1.20128 24.7939 0.657211 25.0659 0.330821 25.5555C0.00443159 26.0452 -0.104405 26.6436 0.113208 27.1876L1.14689 29.9077C1.20128 30.071 1.41889 30.2341 1.6365 30.2341H27.75C27.9676 30.2341 28.1852 30.0709 28.2396 29.9077L29.2733 27.1876C29.4365 26.6436 29.3821 26.0452 29.0557 25.5555C28.7293 25.0659 28.1852 24.7938 27.5867 24.7938ZM26.8251 4.06619C26.4443 3.68536 26.0635 3.30458 25.6282 2.97813C25.6826 2.97813 25.6826 2.97813 25.6826 2.92374C26.2811 2.2709 27.3147 2.2709 27.9675 2.92374C28.6204 3.52219 28.6204 4.55581 27.9675 5.20865L27.9132 5.26304C27.8454 5.184 27.7748 5.10224 27.7029 5.0195C27.4434 4.71104 27.1696 4.41069 26.8795 4.12058C26.8735 4.11471 26.8674 4.10908 26.8614 4.10314C26.8493 4.09097 26.8372 4.07831 26.8251 4.06619ZM26.0973 4.86221C26.1301 4.89522 26.1626 4.92823 26.1949 4.9613C26.2191 4.98589 26.2431 5.01054 26.267 5.03525C26.3145 5.08437 26.3616 5.13355 26.408 5.18291C26.4252 5.20126 26.4422 5.21973 26.4593 5.23815C26.5034 5.28557 26.5474 5.33293 26.5905 5.38066C26.6473 5.44377 26.7035 5.5073 26.7589 5.57126C26.9758 5.82218 27.1792 6.07989 27.3691 6.35117C27.3952 6.39029 27.4246 6.42288 27.4562 6.45025C31.0515 11.4011 30.7593 18.3406 26.4986 22.9441L24.7033 21.1488L20.9495 17.395L16.9237 13.3692L8.05601 4.50142C13.163 -0.225206 21.0911 -0.122849 26.0973 4.86221ZM20.2004 18.1858L20.3076 18.3198L20.4055 18.483C20.7196 18.928 21.046 19.3981 21.2884 19.8692C21.5175 20.341 21.6549 20.8119 21.6024 21.2575C21.548 21.7472 21.276 22.1824 20.8952 22.2912C20.4056 22.4544 19.6984 22.128 18.9911 21.3664C17.5766 19.8431 16.7062 18.4286 16.4341 17.2317L16.3797 16.9597L16.3747 16.9577C16.3062 16.2136 16.4884 15.5404 16.9237 14.9468L19.0191 17.0078L20.2004 18.1858ZM5.60787 16.1437C5.54834 16.0544 5.47251 15.965 5.39819 15.8757C5.34223 15.8013 5.28554 15.7273 5.22703 15.6541C5.19826 15.5391 5.13939 15.348 5.10608 15.1453L5.17264 14.8925C5.17264 14.7293 5.28148 14.294 6.15188 14.0764L6.39904 14.0105C6.56621 14.0716 6.7192 14.1657 6.80472 14.294C7.12541 14.6654 7.48814 15.0105 7.88612 15.3197L7.89278 15.3277L7.89509 15.3268C8.77802 16.0107 9.83447 16.5178 10.9938 16.7422C11.701 16.9054 12.3538 17.2862 12.8434 17.8847C13.9315 19.1904 13.7683 21.2033 12.5171 22.3457C11.8098 22.9442 10.9938 23.2162 10.0689 23.1618C9.14408 23.053 8.3824 22.6722 7.78401 21.9649C7.40317 21.4753 7.13117 20.8225 7.07678 20.1697C6.99108 18.9273 6.56675 17.6853 5.85946 16.5492L5.87993 16.5247L5.60787 16.1437ZM1.96289 11.6826C1.79967 11.6826 1.69089 11.6282 1.58205 11.465C1.47322 11.3018 1.47322 11.0298 1.63644 10.8665C1.74522 10.7577 1.79967 10.7033 1.90844 10.6489C2.23483 10.5945 2.5069 10.3769 2.61567 10.1049C2.67006 9.99609 2.72451 9.9417 2.7789 9.83292C2.99651 9.77853 3.21412 9.77853 3.37735 9.9417C3.48619 10.0505 3.54057 10.2137 3.54057 10.3769C3.48619 10.9209 3.59496 11.4106 3.92141 11.7914L5.04346 13.1806C4.80749 13.3213 4.61296 13.4909 4.459 13.6878L3.32296 12.3354C2.99651 11.9547 2.5069 11.6826 1.96289 11.6826ZM2.39812 22.4544C2.11358 20.9843 3.89604 18.7701 5.1148 17.3973C5.64318 18.3049 5.96618 19.2778 6.0431 20.2783C6.09749 21.1488 6.47833 21.9648 7.02233 22.6721C7.78395 23.5969 8.87201 24.141 10.0689 24.2497C10.1778 24.2497 10.2865 24.2497 10.3954 24.2497C11.4834 24.2497 12.4627 23.8689 13.2787 23.1617C14.9653 21.6384 15.1284 18.9182 13.714 17.1773C13.1155 16.4157 12.2451 15.8716 11.2658 15.654C10.5966 15.5053 9.97322 15.2766 9.40972 14.9698C10.9369 14.8838 12.5868 15.5557 14.2036 16.9597C14.258 16.9597 14.3124 17.014 14.3668 17.0684C14.6355 17.2834 15.0106 17.6573 15.4915 17.8761C15.6048 18.2966 15.7779 18.743 16.022 19.2162C16.505 20.1626 17.2585 21.1747 18.2833 22.2362C18.2835 22.2364 18.2836 22.2366 18.2838 22.2368C18.2838 22.2368 18.2838 22.2368 18.2839 22.2369C19.6983 23.7056 20.7863 23.5968 21.3304 23.4336C21.6207 23.3299 21.879 23.1548 22.094 22.9269C22.4729 22.5533 22.7285 22.0221 22.7993 21.4207C22.818 21.1958 22.8088 20.9741 22.7776 20.7556L23.6699 21.6453C23.6706 21.9694 23.7245 22.2935 23.7785 22.6175C23.8329 22.9439 23.8873 23.216 23.8873 23.5424C23.8873 23.9776 23.7786 24.4128 23.561 24.7937H3.75819C3.05096 24.0865 2.61573 23.3249 2.39812 22.4544ZM28.2395 26.8067L27.3691 29.1461H2.01728L1.14683 26.8067C1.03799 26.6435 1.09244 26.3715 1.20121 26.2083C1.31005 26.045 1.5276 25.9363 1.74522 25.9363H27.6411C27.8587 25.9363 28.0763 26.0451 28.1851 26.2083C28.2939 26.3715 28.2939 26.5891 28.2395 26.8067Z" fill="#FE0E36"/>
<path d="M22.6359 4.88226C23.3431 5.31749 23.9415 5.8071 24.54 6.40556C24.6488 6.51433 24.7576 6.56878 24.9208 6.56878C25.0841 6.56878 25.2473 6.51439 25.3017 6.40556C25.5193 6.18794 25.5193 5.86155 25.3017 5.64394C24.7032 4.9911 23.996 4.4471 23.2344 3.95742C22.9624 3.79419 22.6359 3.84858 22.4728 4.12065C22.3094 4.39259 22.3639 4.71904 22.6359 4.88226Z" fill="#FE0E36"/>
<path d="M19.7528 3.57658C20.0248 3.68542 20.3512 3.46781 20.4056 3.19574C20.5144 2.92374 20.2968 2.59729 20.0248 2.5429C16.8694 1.72684 13.2788 2.43407 10.4498 4.44704C10.1778 4.61026 10.1234 4.93665 10.2866 5.20865C10.3954 5.31749 10.5586 5.42627 10.7218 5.42627C10.8306 5.42627 10.9394 5.37188 11.0482 5.31749C13.6052 3.52219 16.8694 2.86935 19.7528 3.57658Z" fill="#FE0E36"/>
</svg>
