<svg width="25" height="31" viewBox="0 0 25 31" fill="none" xmlns="http://www.w3.org/2000/svg">
<path d="M22.6964 31H1.66071C0.745107 31 0 30.2549 0 29.3393V8.30357C0 7.38796 0.745107 6.64286 1.66071 6.64286H20.4821C20.7877 6.64286 21.0357 6.89086 21.0357 7.19643C21.0357 7.502 20.7877 7.75 20.4821 7.75H1.66071C1.35625 7.75 1.10714 7.99911 1.10714 8.30357V29.3393C1.10714 29.6437 1.35625 29.8929 1.66071 29.8929H22.6964C23.0009 29.8929 23.25 29.6437 23.25 29.3393V1.66071C23.25 1.35625 23.0009 1.10714 22.6964 1.10714H1.66071C1.35625 1.10714 1.10714 1.35625 1.10714 1.66071V2.76786C1.10714 3.07232 1.35625 3.32143 1.66071 3.32143H3.46204C3.8905 3.32143 4.29682 3.48307 4.60571 3.77868L5.12939 4.27579C5.23457 4.37432 5.36964 4.42857 5.51246 4.42857H9.42179C9.55907 4.42857 9.69082 4.37764 9.79268 4.28464L10.7005 3.46425C10.9242 3.26164 11.2763 3.27604 11.4822 3.50411C11.687 3.72996 11.6693 4.08093 11.4423 4.28575L10.5356 5.10614C10.2289 5.38293 9.83364 5.53571 9.42179 5.53571H5.51246C5.08511 5.53571 4.67879 5.37407 4.36768 5.07957L3.84289 4.58136C3.73993 4.48282 3.60486 4.42857 3.46204 4.42857H1.66071C0.745107 4.42857 0 3.68346 0 2.76786V1.66071C0 0.745107 0.745107 0 1.66071 0H22.6964C23.612 0 24.3571 0.745107 24.3571 1.66071V29.3393C24.3571 30.2549 23.612 31 22.6964 31Z" fill="#FE0E36"/>
<path d="M20.4823 4.42857C20.788 4.42857 21.0359 4.18073 21.0359 3.875C21.0359 3.56927 20.788 3.32143 20.4823 3.32143C20.1766 3.32143 19.9287 3.56927 19.9287 3.875C19.9287 4.18073 20.1766 4.42857 20.4823 4.42857Z" fill="#FE0E36"/>
<path d="M17.1605 4.42857C17.4662 4.42857 17.7141 4.18073 17.7141 3.875C17.7141 3.56927 17.4662 3.32143 17.1605 3.32143C16.8548 3.32143 16.6069 3.56927 16.6069 3.875C16.6069 4.18073 16.8548 4.42857 17.1605 4.42857Z" fill="#FE0E36"/>
<path d="M12.1784 27.6786C7.29482 27.6786 3.32129 23.705 3.32129 18.8214C3.32129 13.9378 7.29482 9.96428 12.1784 9.96428C17.062 9.96428 21.0356 13.9378 21.0356 18.8214C21.0356 23.705 17.062 27.6786 12.1784 27.6786ZM12.1784 11.0714C7.90597 11.0714 4.42843 14.549 4.42843 18.8214C4.42843 23.0939 7.90597 26.5714 12.1784 26.5714C16.4509 26.5714 19.9284 23.0939 19.9284 18.8214C19.9284 14.549 16.4509 11.0714 12.1784 11.0714Z" fill="#FE0E36"/>
<path d="M12.1788 24.3571C9.12639 24.3571 6.64307 21.8738 6.64307 18.8214C6.64307 15.769 9.12639 13.2857 12.1788 13.2857C15.2312 13.2857 17.7145 15.769 17.7145 18.8214C17.7145 21.8738 15.2312 24.3571 12.1788 24.3571ZM12.1788 14.3929C9.73642 14.3929 7.75021 16.3791 7.75021 18.8214C7.75021 21.2638 9.73642 23.25 12.1788 23.25C14.6211 23.25 16.6074 21.2638 16.6074 18.8214C16.6074 16.3791 14.6211 14.3929 12.1788 14.3929Z" fill="#FE0E36"/>
<path d="M22.6964 31H1.66071C0.745107 31 0 30.2549 0 29.3393V8.30357C0 7.38796 0.745107 6.64286 1.66071 6.64286H20.4821C20.7877 6.64286 21.0357 6.89086 21.0357 7.19643C21.0357 7.502 20.7877 7.75 20.4821 7.75H1.66071C1.35625 7.75 1.10714 7.99911 1.10714 8.30357V29.3393C1.10714 29.6437 1.35625 29.8929 1.66071 29.8929H22.6964C23.0009 29.8929 23.25 29.6437 23.25 29.3393V1.66071C23.25 1.35625 23.0009 1.10714 22.6964 1.10714H1.66071C1.35625 1.10714 1.10714 1.35625 1.10714 1.66071V2.76786C1.10714 3.07232 1.35625 3.32143 1.66071 3.32143H3.46204C3.8905 3.32143 4.29682 3.48307 4.60571 3.77868L5.12939 4.27579C5.23457 4.37432 5.36964 4.42857 5.51246 4.42857H9.42179C9.55907 4.42857 9.69082 4.37764 9.79268 4.28464L10.7005 3.46425C10.9242 3.26164 11.2763 3.27604 11.4822 3.50411C11.687 3.72996 11.6693 4.08093 11.4423 4.28575L10.5356 5.10614C10.2289 5.38293 9.83364 5.53571 9.42179 5.53571H5.51246C5.08511 5.53571 4.67879 5.37407 4.36768 5.07957L3.84289 4.58136C3.73993 4.48282 3.60486 4.42857 3.46204 4.42857H1.66071C0.745107 4.42857 0 3.68346 0 2.76786V1.66071C0 0.745107 0.745107 0 1.66071 0H22.6964C23.612 0 24.3571 0.745107 24.3571 1.66071V29.3393C24.3571 30.2549 23.612 31 22.6964 31Z" fill="#FE0E36"/>
<path d="M20.4823 4.42857C20.788 4.42857 21.0359 4.18073 21.0359 3.875C21.0359 3.56927 20.788 3.32143 20.4823 3.32143C20.1766 3.32143 19.9287 3.56927 19.9287 3.875C19.9287 4.18073 20.1766 4.42857 20.4823 4.42857Z" fill="#FE0E36"/>
<path d="M17.1605 4.42857C17.4662 4.42857 17.7141 4.18073 17.7141 3.875C17.7141 3.56927 17.4662 3.32143 17.1605 3.32143C16.8548 3.32143 16.6069 3.56927 16.6069 3.875C16.6069 4.18073 16.8548 4.42857 17.1605 4.42857Z" fill="#FE0E36"/>
<path d="M12.1784 27.6786C7.29482 27.6786 3.32129 23.705 3.32129 18.8214C3.32129 13.9378 7.29482 9.96428 12.1784 9.96428C17.062 9.96428 21.0356 13.9378 21.0356 18.8214C21.0356 23.705 17.062 27.6786 12.1784 27.6786ZM12.1784 11.0714C7.90597 11.0714 4.42843 14.549 4.42843 18.8214C4.42843 23.0939 7.90597 26.5714 12.1784 26.5714C16.4509 26.5714 19.9284 23.0939 19.9284 18.8214C19.9284 14.549 16.4509 11.0714 12.1784 11.0714Z" fill="#FE0E36"/>
<path d="M12.1788 24.3571C9.12639 24.3571 6.64307 21.8738 6.64307 18.8214C6.64307 15.769 9.12639 13.2857 12.1788 13.2857C15.2312 13.2857 17.7145 15.769 17.7145 18.8214C17.7145 21.8738 15.2312 24.3571 12.1788 24.3571ZM12.1788 14.3929C9.73642 14.3929 7.75021 16.3791 7.75021 18.8214C7.75021 21.2638 9.73642 23.25 12.1788 23.25C14.6211 23.25 16.6074 21.2638 16.6074 18.8214C16.6074 16.3791 14.6211 14.3929 12.1788 14.3929Z" fill="#FE0E36"/>
</svg>
