<svg width="28" height="31" viewBox="0 0 28 31" fill="none" xmlns="http://www.w3.org/2000/svg">
<path d="M27.4116 29.9666H22.784L23.5478 28.9333H23.7949C25.8099 28.9333 27.4116 27.3316 27.4116 25.3166V19.1166C27.4116 18.8583 27.6699 17.7733 27.8249 17.05C27.9799 16.585 27.9283 16.0684 27.6699 15.655C27.5802 15.5354 27.4772 15.4293 27.364 15.3382C27.5655 15.0289 27.513 14.6195 27.2566 14.3117L26.5332 13.4334C25.9761 12.7749 25.1705 12.3657 24.3116 12.3499V11.8834C24.3116 11.1876 23.89 10.622 23.2782 10.4167V4.28835C23.2782 2.48 21.8316 1.03335 20.0232 1.03335H19.0615C18.8563 0.421588 18.2906 0 17.5949 0H13.4616C12.7658 0 12.2002 0.421588 11.9949 1.03335H11.0332C9.22485 1.03335 7.7782 2.48 7.7782 4.28835V10.4167C7.1665 10.622 6.74485 11.1877 6.74485 11.8834V12.3962C6.16735 12.5027 5.6346 12.787 5.19485 13.2267L3.95485 14.4667C3.7258 14.6958 3.619 15.0061 3.70576 15.3257C3.57861 15.4305 3.4692 15.5579 3.3865 15.7067C3.12814 16.1201 3.0765 16.6367 3.2315 17.1017C3.33164 17.5357 3.4749 18.1421 3.56372 18.5867L2.30156 17.05H1.06156C0.699911 17.05 0.338204 17.2566 0.131557 17.6184C-0.0750892 17.9801 -0.0234428 18.3934 0.183204 18.7034L3.64485 24.9649V25.3167C3.64485 27.3317 5.2465 28.9334 7.2615 28.9334H7.50859L8.27239 29.9667H3.64485C3.33485 29.9667 3.1282 30.1734 3.1282 30.4834C3.1282 30.7934 3.33485 31 3.64485 31H9.99985H21.0566H27.4116C27.7216 31 27.9282 30.7934 27.9282 30.4834C27.9282 30.1734 27.7216 29.9666 27.4116 29.9666ZM22.2448 12.3484V11.8834C22.2448 11.5734 22.4515 11.3667 22.7615 11.3667C23.0715 11.3667 23.2781 11.5734 23.2781 11.8834V12.3484H22.2448ZM13.4616 1.03335H17.5949C17.9049 1.03335 18.1116 1.24 18.1116 1.55C18.1116 1.86 17.9049 2.06665 17.5949 2.06665H13.4616C13.1516 2.06665 12.9449 1.86 12.9449 1.55C12.9449 1.24 13.1516 1.03335 13.4616 1.03335ZM8.81156 4.28835C8.81156 3.04835 9.7932 2.06671 11.1366 2.06671H11.9949C12.2002 2.67841 12.7658 3.1 13.4616 3.1H13.5132H17.5949H17.6465C18.3181 3.1 18.8865 2.68665 19.0931 2.06665H20.0231C21.2631 2.06665 22.2448 3.04829 22.2448 4.28829V10.4166C21.6718 10.6089 21.2661 11.1174 21.2169 11.7528C21.2166 11.7573 21.2163 11.7618 21.216 11.7663C21.2133 11.8049 21.2115 11.8438 21.2115 11.8833V12.3483H20.6431V12.2966C20.6431 11.2116 19.7648 10.3333 18.6281 10.3333H17.0781V9.81665C17.8531 9.81665 18.5765 9.35165 18.9381 8.68C19.1448 8.26665 19.1448 7.75 18.8348 7.33665C18.5764 6.975 18.1631 6.71665 17.6981 6.71665H13.3066C12.8416 6.71665 12.4282 6.92329 12.1699 7.33665C11.9116 7.75 11.9116 8.26665 12.1183 8.68C12.4799 9.35165 13.2033 9.81665 13.9783 9.81665V10.3333H12.3766C11.2399 10.3333 10.3616 11.1599 10.3616 12.2966V12.3483H9.84491V11.8833V11.8316C9.84491 11.16 9.43156 10.5916 8.81156 10.385V4.28835ZM15.0116 9.81665H16.0449V10.3333H15.0116V9.81665ZM13.9782 8.78335C13.5649 8.78335 13.2032 8.57671 13.0482 8.215C12.9449 8.06 12.9966 7.95665 13.0482 7.905C13.0482 7.85335 13.1516 7.75 13.3066 7.75H17.7499C17.9049 7.75 17.9566 7.85335 18.0083 7.905C18.0083 7.95665 18.0599 8.06 18.0083 8.215C17.8533 8.57665 17.4916 8.78335 17.0783 8.78335H13.9782ZM17.0782 11.3666H18.6798C19.2482 11.3666 19.6615 11.78 19.6615 12.2966V12.3483H11.3948V12.2966C11.3948 11.78 11.8082 11.3666 12.3765 11.3666H13.9781H17.0782ZM8.29491 11.3666C8.60491 11.3666 8.81156 11.5733 8.81156 11.8833V12.3483H7.7782V11.8833C7.7782 11.5734 7.98485 11.3666 8.29491 11.3666ZM5.86656 14.0016C6.2282 13.64 6.6932 13.4333 7.20991 13.4333H8.81156H9.84491H10.3616H20.6432H20.6948H21.2115H22.2448H24.2082C24.7766 13.4333 25.2932 13.6916 25.6548 14.1566L26.3782 14.9833H4.88485L5.86656 14.0016ZM1.1132 18.1866V18.0833H1.83656L3.64491 20.3049V22.7849L1.1132 18.1866ZM4.6782 25.3166V24.8V19.9434V19.1167C4.6782 18.6001 4.31656 17.1017 4.2132 16.7917V16.7401C4.10985 16.5334 4.16156 16.3267 4.26485 16.2234C4.36814 16.1201 4.5232 16.0168 4.6782 16.0168H26.3782C26.5848 16.0168 26.6882 16.1201 26.7916 16.2751C26.8949 16.4301 26.8949 16.5851 26.8432 16.7401V16.7918C26.7399 17.1018 26.3782 18.6001 26.3782 19.1168V25.3168C26.3782 26.7634 25.2416 27.9001 23.7948 27.9001H7.26156C5.81485 27.9 4.6782 26.7634 4.6782 25.3166ZM9.99985 29.9666C9.7415 29.9666 9.4832 29.8633 9.3282 29.6566L8.81156 28.9333H22.2449L21.7283 29.6566C21.5733 29.8633 21.3149 29.9666 21.0566 29.9666H9.99985Z" fill="#FE0E36"/>
</svg>
