<svg width="25" height="31" viewBox="0 0 25 31" fill="none" xmlns="http://www.w3.org/2000/svg">
<path d="M22.2166 0H2.58335C1.15887 0 0 1.15887 0 2.58335V10.85C0 11.1352 0.231471 11.3666 0.516647 11.3666H22.2166C22.5018 11.3666 22.7333 11.1352 22.7333 10.85C22.7333 10.5648 22.5018 10.3334 22.2166 10.3334H1.03335V2.58335C1.03335 1.72879 1.72879 1.03335 2.58335 1.03335H22.2167C23.0713 1.03335 23.7667 1.72879 23.7667 2.58335V26.35C23.7667 27.2046 23.0713 27.9 22.2167 27.9C21.9315 27.9 21.7001 28.1315 21.7001 28.4166V29.9666H3.1V28.9333H20.15C20.4352 28.9333 20.6666 28.7018 20.6666 28.4166C20.6666 28.1315 20.4352 27.9 20.15 27.9H2.58335C1.72879 27.9 1.03335 27.2046 1.03335 26.35V12.9166C1.03335 12.6315 0.801883 12.4 0.516707 12.4C0.231531 12.4 6.05136e-05 12.6315 6.05136e-05 12.9166V26.35C6.05136e-05 27.5978 0.889252 28.6409 2.06671 28.8812V30.4834C2.06671 30.7685 2.29818 31 2.58335 31H22.2167C22.5019 31 22.7334 30.7685 22.7334 30.4834V28.8812C23.9108 28.6415 24.8 27.5978 24.8 26.35V2.58335C24.8 1.15887 23.6411 0 22.2166 0Z" fill="#FE0E36"/>
<path d="M2.06641 5.68336V7.75001C2.06641 8.60457 2.76185 9.30001 3.61641 9.30001C4.47096 9.30001 5.16641 8.60457 5.16641 7.75001V5.68336C5.16641 4.8288 4.47096 4.13336 3.61641 4.13336C2.76185 4.13336 2.06641 4.8288 2.06641 5.68336ZM4.13311 5.68336V7.75001C4.13311 8.0347 3.90116 8.26666 3.61647 8.26666C3.33178 8.26666 3.09982 8.0347 3.09982 7.75001V5.68336C3.09982 5.39867 3.33178 5.16672 3.61647 5.16672C3.9011 5.16665 4.13311 5.39867 4.13311 5.68336Z" fill="#FE0E36"/>
<path d="M22.2168 7.23336C22.502 7.23336 22.7335 7.00189 22.7335 6.71672V4.65001C22.7335 4.36483 22.502 4.13336 22.2168 4.13336C21.9317 4.13336 21.7002 4.36483 21.7002 4.65001V6.71665C21.7002 7.00189 21.9317 7.23336 22.2168 7.23336Z" fill="#FE0E36"/>
<path d="M22.2165 3.61665C22.5016 3.61665 22.7331 3.38518 22.7331 3.1C22.7331 2.53014 22.2697 2.06665 21.6998 2.06665C21.4146 2.06665 21.1831 2.29758 21.1831 2.5833C21.1831 2.86847 21.4146 3.09946 21.6998 3.09946V3.1C21.6998 3.38518 21.9313 3.61665 22.2165 3.61665Z" fill="#FE0E36"/>
<path d="M5.16641 19.1166V13.95C5.16641 13.0954 4.47096 12.4 3.61641 12.4C2.76185 12.4 2.06641 13.0954 2.06641 13.95V19.1166C2.06641 19.9712 2.76185 20.6666 3.61641 20.6666C4.47096 20.6666 5.16641 19.9712 5.16641 19.1166ZM3.09976 19.1166V13.95C3.09976 13.6653 3.33171 13.4333 3.61641 13.4333C3.9011 13.4333 4.13305 13.6653 4.13305 13.95V19.1166C4.13305 19.4013 3.9011 19.6333 3.61641 19.6333C3.33171 19.6333 3.09976 19.4013 3.09976 19.1166Z" fill="#FE0E36"/>
</svg>
