<svg width="31" height="31" viewBox="0 0 31 31" fill="none" xmlns="http://www.w3.org/2000/svg">
<path d="M16.9999 3.49994H3V10.5H16.9999V3.49994ZM16 9.49994H4.00002V4.49996H16V9.49994Z" fill="#FE0E36"/>
<path d="M9.99999 13.9999C6.96749 13.9999 4.5 16.4674 4.5 19.4999C4.5 22.5324 6.96749 24.9999 9.99999 24.9999C13.0325 24.9999 15.5 22.5324 15.5 19.4999C15.5 16.4674 13.0325 13.9999 9.99999 13.9999ZM5.9155 21.3774C5.65153 20.8049 5.50002 20.1704 5.50002 19.4999C5.50002 17.0184 7.51853 14.9999 9.99999 14.9999C10.6705 14.9999 11.305 15.1514 11.8775 15.4154L5.9155 21.3774ZM6.45047 22.2565L12.7559 15.951C13.0524 16.1815 13.3184 16.4476 13.5489 16.744L7.24343 23.0494C6.94754 22.8189 6.68105 22.5524 6.45047 22.2565ZM14.5 19.4999C14.5 21.9815 12.4814 23.9999 9.99999 23.9999C9.32946 23.9999 8.69495 23.8484 8.12249 23.5844L14.0845 17.6224C14.3484 18.1949 14.5 18.8294 14.5 19.4999Z" fill="#FE0E36"/>
<path d="M10.5 12.5H9.5V13.5H10.5V12.5Z" fill="#FE0E36"/>
<path d="M10.5 25.4999H9.5V26.4999H10.5V25.4999Z" fill="#FE0E36"/>
<path d="M17 18.9999H16V19.9999H17V18.9999Z" fill="#FE0E36"/>
<path d="M4.00002 18.9999H3V19.9999H4.00002V18.9999Z" fill="#FE0E36"/>
<path d="M14.6464 15.8535L15.3535 15.1464L14.3537 14.1465L13.6465 14.8536L14.6464 15.8535Z" fill="#FE0E36"/>
<path d="M4.64614 23.8537L5.646 24.8535L6.35311 24.1464L5.35325 23.1466L4.64614 23.8537Z" fill="#FE0E36"/>
<path d="M13.6464 24.1466L14.3535 24.8537L15.3534 23.8538L14.6463 23.1467L13.6464 24.1466Z" fill="#FE0E36"/>
<path d="M5.35365 15.8535L6.35352 14.8536L5.6464 14.1465L4.64654 15.1464L5.35365 15.8535Z" fill="#FE0E36"/>
<path d="M6.00002 5.5H5V8.49995H6.00002V5.5Z" fill="#FE0E36"/>
<path d="M8.00002 5.5H7V8.49995H8.00002V5.5Z" fill="#FE0E36"/>
<path d="M15 5.5H14V6.50002H15V5.5Z" fill="#FE0E36"/>
<path d="M10 5.5H9V6.50002H10V5.5Z" fill="#FE0E36"/>
<path d="M15 7.50003H14V8.50005H15V7.50003Z" fill="#FE0E36"/>
<path d="M30.9999 7.00001H30.4999V3.49995H29.4999V0H28.4999V3.49995H27.4998V6.99991H26.9998V7.99993H27.4998V11.9999C27.4998 12.6509 27.9193 13.2009 28.4999 13.4079V22.9999C28.4999 26.3084 25.8084 28.9999 22.4999 28.9999H19.9998V25.9999H20.9999C22.9294 25.9999 24.4999 24.4294 24.4999 22.5V13.408C25.0804 13.2011 25.4999 12.651 25.4999 12V7.99993H25.9999V6.99991H25.4999V3.49995H24.4999V0H23.4999V3.49995H22.4999V6.99991H21.9998V7.99993H22.4999V11.9999C22.4999 12.6509 22.9193 13.2009 23.4999 13.4079V22.4999C23.4999 23.8784 22.3784 24.9999 20.9998 24.9999H19.9998V1.50003C19.9999 0.673048 19.327 0 18.4999 0H1.50003C0.673048 0 0 0.673048 0 1.50003V29.5C0 30.327 0.673048 31 1.50003 31H18.4999C19.1509 31 19.7009 30.5805 19.9079 30H22.5C26.36 30 29.5 26.86 29.5 23V13.408C30.0805 13.2011 30.5 12.651 30.5 12V7.99993H31L30.9999 7.00001ZM23.5 4.49997H24.5V7.00001H23.5V4.49997ZM23.4999 7.99993H24.4999V11.9999C24.4999 12.2759 24.2759 12.4999 23.9999 12.4999C23.7238 12.4999 23.4999 12.2759 23.4999 11.9999V7.99993ZM18.9999 29.4999C18.9999 29.7759 18.7759 29.9999 18.4999 29.9999H1.50003C1.22398 29.9999 1.00002 29.7759 1.00002 29.4999V1.50003C1.00002 1.22398 1.22398 1.00002 1.50003 1.00002H18.4999C18.7759 1.00002 18.9999 1.22398 18.9999 1.50003V29.4999ZM29.4999 12C29.4999 12.276 29.2759 12.5 28.9999 12.5C28.7238 12.5 28.4999 12.276 28.4999 12V7.99993H29.4999V12ZM29.5 7.00001H28.5V4.49997H29.5V7.00001Z" fill="#FE0E36"/>
<path d="M4.00003 27.4999H2V28.5H4.00003V27.4999Z" fill="#FE0E36"/>
<path d="M18 27.4999H16V28.5H18V27.4999Z" fill="#FE0E36"/>
</svg>
