<svg width="17" height="17" viewBox="0 0 17 17" fill="none" xmlns="http://www.w3.org/2000/svg">
<g clip-path="url(#clip0_10_42)">
<path d="M13.1297 5.35146C12.2882 5.17296 9.8671 4.71112 9.20835 4.58079V2.09312C9.20835 0.93925 8.25494 0 7.08335 0C5.91177 0 4.95835 0.93925 4.95835 2.09312V7.37517C4.56594 7.13717 4.11685 6.93529 3.65644 6.86871C2.36585 6.68312 1.41669 7.53454 1.41669 8.63812C1.41669 9.20833 1.67381 9.78067 2.1406 10.2467C4.9541 13.0602 6.1696 13.877 6.4324 17H13.4584V15.7618C13.4584 12.1111 15.5834 11.4899 15.5834 8.65796C15.5834 6.92396 14.8318 5.71342 13.1297 5.35146ZM13.3826 11.0337C12.801 12.0842 12.0806 13.3847 12.0431 15.5833H7.70102C7.18677 12.8775 5.00227 11.1081 3.14219 9.24446C2.65485 8.75854 2.86381 8.27404 3.45527 8.27192C4.3499 8.26767 5.62277 9.60642 6.37502 10.5421V2.09312C6.37502 1.72692 6.69944 1.41667 7.08335 1.41667C7.46727 1.41667 7.79169 1.72692 7.79169 2.09312V7.01462C7.79169 7.23775 7.97302 7.41908 8.19685 7.41908C8.41927 7.41908 8.6006 7.23775 8.6006 7.01462V6.60733C8.6006 6.22908 8.94769 5.94292 9.31885 6.01729C9.60077 6.07325 9.80477 6.32046 9.80477 6.60733V7.50904C9.80477 7.73217 9.9861 7.9135 10.2092 7.9135C10.4324 7.9135 10.6137 7.73217 10.6137 7.50904V6.92112C10.6137 6.545 10.9586 6.26096 11.3277 6.33462C11.6082 6.38987 11.8108 6.63496 11.8108 6.92112V8.007C11.8108 8.23012 11.9921 8.41146 12.2152 8.41146C12.4384 8.41146 12.6197 8.23012 12.6197 8.007V7.361C12.6197 6.99054 13.0057 6.74687 13.3408 6.90342C13.7976 7.11946 14.1667 7.56358 14.1667 8.65796C14.1667 9.61775 13.8373 10.2113 13.3826 11.0337Z" fill="#FE0E36"/>
</g>
<defs>
<clipPath id="clip0_10_42">
<rect width="17" height="17" fill="white"/>
</clipPath>
</defs>
</svg>
