<svg width="190" height="74" viewBox="0 0 190 74" fill="none" xmlns="http://www.w3.org/2000/svg">
<path fill-rule="evenodd" clip-rule="evenodd" d="M108.873 27.3115C112.955 27.8375 116.041 29.676 115.66 34.2151C112.132 37.3753 109.647 34.672 106.055 32.4477C107.499 30.7507 108.114 29.7869 108.873 27.3115ZM94.9146 34.9663C95.3101 30.5441 101.945 26.8572 105.985 26.4181C105.974 30.2771 105.562 29.8733 102.065 32.188C98.6417 34.4542 98.9429 35.566 94.9146 34.9663ZM88.9701 32.4364C88.3353 29.3625 97.8706 23.2998 101.319 23.6458C102.191 27.4755 100.04 27.896 96.7719 30.1436C89.1645 35.3767 90.7501 33.7953 88.9708 32.4364H88.9701ZM83.3644 30.6224C81.7516 26.3225 84.687 25.7074 87.8404 23.59C91.1242 21.3855 93.5227 18.4924 96.9369 20.6284C97.5275 24.838 86.9155 31.1618 83.3644 30.6231V30.6224ZM77.6172 26.5576C76.5612 20.5958 86.1945 15.3361 90.5078 16.0515C93.4056 21.5437 80.7839 27.9545 77.6172 26.5576ZM85.4544 2.60092C90.2353 1.14634 90.7331 5.37658 96.1003 6.12645C101.045 6.81721 103.254 4.25343 108.995 6.50238C116.276 9.3544 119.199 20.2007 112.426 25.4982L103.792 21.1571C106.204 17.1408 110.126 16.8691 112.318 13.1184C103.493 16.8432 106.572 18.7879 96.0325 13.853C91.2273 11.6033 82.7023 9.16578 85.4544 2.60092ZM70.9268 2.96689C78.2889 -1.07604 82.0064 9.04294 83.0271 10.0604C84.4153 11.4433 85.1701 11.2546 86.9309 13.1018C80.7405 20.4716 78.1018 17.8793 74.7032 18.5542C70.1072 19.4661 66.1782 19.233 64.664 12.1361C68.9364 12.7312 68.8835 14.2203 72.6451 15.546L77.2652 13.0075L77.1422 8.03469C74.9101 5.77509 72.0885 5.10758 70.9268 2.96755V2.96689ZM70.9256 5.51207L74.0256 7.8434C75.8969 10.2158 75.2665 9.60948 74.7194 11.9853C70.4238 13.9141 67.9233 10.1395 63.539 8.22198C62.0843 12.3234 62.4126 13.2658 63.8595 17.3659L65.9356 19.4667C70.4951 21.6918 70.4173 21.4154 75.6068 21.0581C74.5883 25.3926 74.0065 27.358 78.4325 29.2204C82.6552 30.9971 79.4951 30.1861 82.2148 32.0253C84.5544 33.6074 84.2378 32.2478 86.4957 33.6565L95.3034 37.186C98.3965 38.0993 100.668 35.6192 103.241 34.2184C110.026 35.8477 111.855 40.7142 118.128 35.1304L118.304 30.6471L114.82 27.4596C116.771 22.0066 119.751 21.5158 118.074 14.0077C114.982 0.165994 98.5666 4.27468 97.5665 4.23284C91.8186 3.99373 93.0529 0.175958 85.5339 0.0557393L81.6551 3.49094C76.9441 -0.24049 71.5666 -1.7854 66.7171 2.96822C67.8657 5.03252 68.6408 5.4762 70.9268 5.5134L70.9256 5.51207Z" fill="#EB680C"/>
<path fill-rule="evenodd" clip-rule="evenodd" d="M108.996 6.5031C103.255 4.25348 101.045 6.81726 96.1003 6.12716C90.7331 5.37796 90.236 1.14706 85.4551 2.60164C82.7038 9.1665 91.2287 11.6034 96.034 13.8537C106.574 18.7893 103.493 16.8445 112.319 13.1191C110.128 16.8698 106.206 17.1414 103.794 21.1578L112.427 25.499C119.201 20.2021 116.277 9.3558 108.997 6.5031H108.996Z" fill="#FC8D0D"/>
<path fill-rule="evenodd" clip-rule="evenodd" d="M70.9269 2.96693C72.0885 5.10762 74.9101 5.77513 77.143 8.03401L77.2652 13.0068L72.6451 15.5454C68.8835 14.2197 68.9365 12.7306 64.664 12.1354C66.1788 19.2323 70.1079 19.4661 74.7039 18.5535C78.1018 17.8787 80.7397 20.471 86.9309 13.1012C85.1701 11.2547 84.4152 11.4427 83.0271 10.0598C82.0056 9.04226 78.2888 -1.07667 70.9269 2.96626V2.96693Z" fill="#FC4202"/>
<path fill-rule="evenodd" clip-rule="evenodd" d="M77.6165 26.5577C80.7832 27.9545 93.4049 21.5437 90.5078 16.0515C86.1937 15.3362 76.5604 20.5959 77.6165 26.5577Z" fill="#FC8D0D"/>
<path fill-rule="evenodd" clip-rule="evenodd" d="M83.3643 30.6225C86.9154 31.1618 97.5275 24.8374 96.9368 20.6278C93.5227 18.4918 91.1242 21.3849 87.8411 23.5894C84.6863 25.7075 81.7516 26.3226 83.3643 30.6218V30.6225Z" fill="#FC8D0D"/>
<path fill-rule="evenodd" clip-rule="evenodd" d="M88.9701 32.4364C90.7501 33.7953 89.1638 35.3768 96.7712 30.1436C100.039 27.8953 102.191 27.4749 101.319 23.6459C97.8699 23.2998 88.3353 29.3625 88.9701 32.4364Z" fill="#FD8C0C"/>
<path fill-rule="evenodd" clip-rule="evenodd" d="M111.414 31.4302C116.373 31.0656 115.756 34.0611 111.787 33.9342L111.414 31.4302ZM108.874 27.3116C108.114 29.7877 107.5 30.7507 106.056 32.4477C109.648 34.6721 112.133 37.3747 115.661 34.2152C116.041 29.6761 112.955 27.8376 108.874 27.3116Z" fill="#FC4202"/>
<path fill-rule="evenodd" clip-rule="evenodd" d="M94.9146 34.9663C98.9429 35.5668 98.641 34.4542 102.065 32.188C105.562 29.8727 105.974 30.2772 105.985 26.4182C101.946 26.8573 95.3108 30.5442 94.9146 34.9663Z" fill="#FD8C0C"/>
<path fill-rule="evenodd" clip-rule="evenodd" d="M111.414 31.4302L111.787 33.9342C115.756 34.0611 116.373 31.0656 111.414 31.4302Z" fill="#ED590A"/>
<path fill-rule="evenodd" clip-rule="evenodd" d="M74.0256 7.84407L70.9255 5.51279C71.3572 7.80493 72.1539 7.38713 74.0256 7.84407Z" fill="#F2A679"/>
<path fill-rule="evenodd" clip-rule="evenodd" d="M65.9349 19.4668L63.8588 17.3659L65.9349 19.4668Z" fill="#F3AB7C"/>
<path d="M11.8419 58.46H8.66049V48.5144H4.24188V58.46H1.06049V46.028H11.8419V58.46ZM19.3618 51.4448C18.7373 51.4448 18.0304 51.5632 17.2408 51.8V56.0624H19.8921C20.3634 56.0624 20.599 55.8256 20.599 55.352V52.0664C20.599 51.8888 20.5401 51.7408 20.4223 51.6224C20.3044 51.504 20.1571 51.4448 19.9804 51.4448H19.3618ZM17.2408 58.46V61.4792H14.1478V49.0472H16.8873L17.0641 49.9352C17.6179 49.5682 18.1835 49.3018 18.7609 49.136C19.35 48.9584 19.8449 48.8696 20.2455 48.8696H21.0409C21.8421 48.8696 22.4842 49.1123 22.9674 49.5978C23.4505 50.0832 23.6921 50.7285 23.6921 51.5336V55.6184C23.6921 56.5064 23.4387 57.205 22.9321 57.7141C22.4371 58.2114 21.7478 58.46 20.8641 58.46H17.2408ZM35.1783 55.796C35.1783 56.684 34.925 57.3826 34.4183 57.8917C33.9234 58.389 33.2341 58.6376 32.3504 58.6376H28.2853C27.4016 58.6376 26.7064 58.389 26.1997 57.8917C25.7048 57.3826 25.4574 56.684 25.4574 55.796V51.7112C25.4574 50.8232 25.7048 50.1306 26.1997 49.6333C26.7064 49.1242 27.4016 48.8696 28.2853 48.8696H32.3504C33.2341 48.8696 33.9234 49.1242 34.4183 49.6333C34.925 50.1306 35.1783 50.8232 35.1783 51.7112V55.796ZM32.0853 51.9776C32.0853 51.504 31.8496 51.2672 31.3783 51.2672H29.2574C28.7861 51.2672 28.5504 51.504 28.5504 51.9776V55.5296C28.5504 56.0032 28.7861 56.24 29.2574 56.24H31.3783C31.8496 56.24 32.0853 56.0032 32.0853 55.5296V51.9776ZM49.5809 55.6184C49.5809 56.5064 49.3276 57.205 48.8209 57.7141C48.326 58.2114 47.6367 58.46 46.753 58.46H44.8088V61.4792H41.7158V58.46H39.7716C38.8879 58.46 38.1927 58.2114 37.686 57.7141C37.1911 57.205 36.9437 56.5064 36.9437 55.6184V51.8888C36.9437 51.0008 37.1911 50.3082 37.686 49.8109C38.1927 49.3018 38.8879 49.0472 39.7716 49.0472H41.7158V46.028H44.8088V49.0472H46.753C47.6367 49.0472 48.326 49.3018 48.8209 49.8109C49.3276 50.3082 49.5809 51.0008 49.5809 51.8888V55.6184ZM40.0367 55.352C40.0367 55.8256 40.2724 56.0624 40.7437 56.0624H41.9809V51.4448H40.7437C40.2724 51.4448 40.0367 51.6816 40.0367 52.1552V55.352ZM46.4879 52.1552C46.4879 51.6816 46.2522 51.4448 45.7809 51.4448H44.7204V56.0624H45.7809C46.2522 56.0624 46.4879 55.8256 46.4879 55.352V52.1552ZM61.2446 58.2824C58.617 58.5192 56.4372 58.6376 54.7051 58.6376C53.5503 58.6376 52.702 58.3653 52.16 57.8206C51.6179 57.276 51.3469 56.4235 51.3469 55.2632V49.58C51.3469 48.3368 51.6238 47.437 52.1776 46.8805C52.7432 46.3122 53.6446 46.028 54.8818 46.028H61.2446V48.5144H55.5888C54.8818 48.5144 54.5283 48.8696 54.5283 49.58V55.2632C54.5283 55.5355 54.6049 55.7546 54.7581 55.9203C54.9231 56.0742 55.1293 56.1512 55.3767 56.1512C55.6241 56.1512 55.8951 56.1512 56.1897 56.1512C56.4843 56.1394 56.7907 56.1275 57.1088 56.1157C57.4269 56.1038 57.7451 56.092 58.0632 56.0802C58.3931 56.0683 58.8114 56.0446 59.3181 56.0091C59.8365 55.9736 60.4787 55.9322 61.2446 55.8848V58.2824ZM66.4607 51.0896C65.9894 51.0896 65.7537 51.3264 65.7537 51.8V52.7768H68.7584V51.8C68.7584 51.3264 68.5227 51.0896 68.0514 51.0896H66.4607ZM71.4979 58.2824C69.2238 58.5192 67.1618 58.6376 65.3119 58.6376C64.5106 58.6376 63.8685 58.3949 63.3853 57.9094C62.9022 57.424 62.6607 56.7787 62.6607 55.9736V51.7112C62.6607 50.8232 62.9081 50.1306 63.403 49.6333C63.9097 49.1242 64.6049 48.8696 65.4886 48.8696H69.0235C69.9072 48.8696 70.5965 49.1242 71.0914 49.6333C71.5981 50.1306 71.8514 50.8232 71.8514 51.7112V54.9968H65.7537V55.7072C65.7537 55.8848 65.8126 56.0328 65.9305 56.1512C66.0483 56.2696 66.1956 56.3288 66.3723 56.3288C67.5388 56.3288 69.2474 56.24 71.4979 56.0624V58.2824ZM79.0025 51.4448C78.378 51.4448 77.671 51.5632 76.8815 51.8V56.0624H79.5327C80.004 56.0624 80.2397 55.8256 80.2397 55.352V52.0664C80.2397 51.8888 80.1808 51.7408 80.0629 51.6224C79.9451 51.504 79.7978 51.4448 79.6211 51.4448H79.0025ZM76.8815 58.46V61.4792H73.7885V49.0472H76.528L76.7048 49.9352C77.2586 49.5682 77.8242 49.3018 78.4015 49.136C78.9907 48.9584 79.4856 48.8696 79.8862 48.8696H80.6815C81.4828 48.8696 82.1249 49.1123 82.608 49.5978C83.0911 50.0832 83.3327 50.7285 83.3327 51.5336V55.6184C83.3327 56.5064 83.0794 57.205 82.5727 57.7141C82.0778 58.2114 81.3885 58.46 80.5048 58.46H76.8815ZM91.991 58.46H85.2747V49.0472H91.4607C92.2502 49.0472 92.8865 49.284 93.3696 49.7576C93.8644 50.2194 94.1119 50.7403 94.1119 51.3205C94.1119 51.9006 93.9882 52.3742 93.7407 52.7413C93.4933 53.1083 93.1457 53.357 92.6979 53.4872C93.2282 53.5819 93.6818 53.8424 94.0589 54.2686C94.4477 54.6949 94.6421 55.2632 94.6421 55.9736C94.6421 56.684 94.3947 57.276 93.8998 57.7496C93.4167 58.2232 92.7804 58.46 91.991 58.46ZM91.5491 55.4408C91.5491 55.2632 91.4902 55.1152 91.3724 54.9968C91.2545 54.8784 91.1072 54.8192 90.9305 54.8192H88.3677V56.3288H90.9305C91.1072 56.3288 91.2545 56.2696 91.3724 56.1512C91.4902 56.0328 91.5491 55.8848 91.5491 55.7072V55.4408ZM91.0189 51.8C91.0189 51.6224 90.9599 51.4744 90.8421 51.356C90.7243 51.2376 90.577 51.1784 90.4003 51.1784H88.3677V52.7768H90.4003C90.577 52.7768 90.7243 52.7176 90.8421 52.5992C90.9599 52.4808 91.0189 52.3328 91.0189 52.1552V51.8ZM102.324 49.0472H105.594V58.46H102.501V53.3096L99.496 58.46H96.2262V49.0472H99.3192V54.1976L102.324 49.0472ZM116.019 58.2824C113.816 58.5192 111.872 58.6376 110.187 58.6376C109.386 58.6376 108.743 58.3949 108.26 57.9094C107.777 57.424 107.536 56.7787 107.536 55.9736V51.8888C107.536 51.0008 107.783 50.3082 108.278 49.8109C108.785 49.3018 109.48 49.0472 110.364 49.0472H116.019V51.4448H111.336C110.864 51.4448 110.629 51.6816 110.629 52.1552V55.6184C110.629 55.796 110.688 55.944 110.805 56.0624C110.923 56.1808 111.07 56.24 111.247 56.24C112.308 56.24 113.898 56.1512 116.019 55.9736V58.2824ZM117.43 53.4872V51.0008H124.677V53.4872H117.43ZM135.63 45.8504C135.924 45.8504 136.455 45.9096 137.221 46.028V48.4256H136.514C136.337 48.4256 136.178 48.4848 136.036 48.6032C135.895 48.7098 135.789 48.8282 135.718 48.9584L134.039 52.1552L137.486 58.46H134.128L131.388 53.3984H129.797V58.46H126.616V46.028H129.797V50.912H131.388L133.155 47.5376C133.415 47.0403 133.733 46.6378 134.11 46.3299C134.499 46.0102 135.005 45.8504 135.63 45.8504ZM142.431 56.1512C143.055 56.1512 143.762 56.0328 144.552 55.796V54.7304H141.989C141.812 54.7304 141.665 54.7896 141.547 54.908C141.429 55.0264 141.37 55.1744 141.37 55.352V55.5296C141.37 55.7072 141.429 55.8552 141.547 55.9736C141.665 56.092 141.812 56.1512 141.989 56.1512H142.431ZM139.161 49.2248C141.317 48.988 143.262 48.8696 144.994 48.8696C145.795 48.8696 146.437 49.1123 146.92 49.5978C147.403 50.0832 147.645 50.7285 147.645 51.5336V58.46H144.905L144.728 57.572C144.175 57.939 143.603 58.2114 143.014 58.389C142.437 58.5547 141.948 58.6376 141.547 58.6376H140.928C140.127 58.6376 139.485 58.3949 139.002 57.9094C138.519 57.424 138.277 56.7787 138.277 55.9736V55.1744C138.277 54.3693 138.519 53.724 139.002 53.2386C139.485 52.7531 140.127 52.5104 140.928 52.5104H144.552V51.8C144.552 51.6224 144.493 51.4744 144.375 51.356C144.257 51.2376 144.11 51.1784 143.933 51.1784C143.167 51.1784 142.319 51.2139 141.388 51.285C140.469 51.356 139.727 51.4093 139.161 51.4448V49.2248ZM150.645 58.6376C150.138 58.6376 149.549 58.5784 148.878 58.46V56.1512H149.585C150.032 56.1512 150.268 55.9144 150.292 55.4408L150.645 49.0472H159.129V58.46H156.036V51.4448H153.561L153.296 55.9736C153.249 56.7787 152.984 57.424 152.501 57.9094C152.018 58.3949 151.399 58.6376 150.645 58.6376ZM163.717 61.6568C163.093 61.6568 162.327 61.5976 161.42 61.4792V59.1704H163.01C163.458 59.1704 163.747 59.0461 163.876 58.7974C164.018 58.5488 163.994 58.1995 163.806 57.7496L160.183 49.0472H163.452L165.662 55.0856L167.517 49.0472H170.787L167.252 58.8152C166.911 59.7506 166.469 60.455 165.927 60.9286C165.385 61.4141 164.648 61.6568 163.717 61.6568ZM179.277 49.0472V51.4448H174.77V58.46H171.677V49.0472H179.277ZM183.871 56.1512C184.496 56.1512 185.203 56.0328 185.992 55.796V54.7304H183.43C183.253 54.7304 183.106 54.7896 182.988 54.908C182.87 55.0264 182.811 55.1744 182.811 55.352V55.5296C182.811 55.7072 182.87 55.8552 182.988 55.9736C183.106 56.092 183.253 56.1512 183.43 56.1512H183.871ZM180.602 49.2248C182.758 48.988 184.702 48.8696 186.434 48.8696C187.235 48.8696 187.878 49.1123 188.361 49.5978C188.844 50.0832 189.085 50.7285 189.085 51.5336V58.46H186.346L186.169 57.572C185.615 57.939 185.044 58.2114 184.455 58.389C183.877 58.5547 183.388 58.6376 182.988 58.6376H182.369C181.568 58.6376 180.926 58.3949 180.443 57.9094C179.959 57.424 179.718 56.7787 179.718 55.9736V55.1744C179.718 54.3693 179.959 53.724 180.443 53.2386C180.926 52.7531 181.568 52.5104 182.369 52.5104H185.992V51.8C185.992 51.6224 185.933 51.4744 185.816 51.356C185.698 51.2376 185.551 51.1784 185.374 51.1784C184.608 51.1784 183.759 51.2139 182.829 51.285C181.91 51.356 181.167 51.4093 180.602 51.4448V49.2248Z" fill="#FE0E36"/>
<path d="M45.4072 70.8608C46.1782 70.8608 46.7118 70.4734 47.0081 69.6987L48.1171 70.1194C47.8783 70.709 47.5273 71.1484 47.0642 71.4374C46.6039 71.7236 46.0516 71.8667 45.4072 71.8667C44.7571 71.8667 44.2033 71.7424 43.7459 71.4938C43.2885 71.2423 42.939 70.8796 42.6974 70.4055C42.4586 69.9315 42.3392 69.362 42.3392 68.6971C42.3392 68.0265 42.4543 67.4599 42.6844 66.9974C42.9145 66.5349 43.254 66.1837 43.7028 65.9438C44.1515 65.701 44.701 65.5796 45.3511 65.5796C46.0646 65.5796 46.6456 65.7241 47.0944 66.0132C47.5432 66.2994 47.8581 66.7214 48.0394 67.2793L46.9175 67.5871C46.8226 67.2807 46.6356 67.0379 46.3566 66.8587C46.0804 66.6766 45.7539 66.5856 45.377 66.5856C44.8016 66.5856 44.3644 66.7648 44.0652 67.1232C43.7689 67.4816 43.6208 68.0063 43.6208 68.6971C43.6208 69.1654 43.6884 69.56 43.8236 69.8809C43.9617 70.2017 44.1631 70.446 44.4277 70.6136C44.6952 70.7784 45.0218 70.8608 45.4072 70.8608ZM54.354 70.7914V71.78H49.396V65.6706H54.1771V66.6593H50.669V68.1942H53.9139V69.1827H50.669V70.7914H54.354ZM60.7334 67.6045C60.7334 68.0005 60.6428 68.3517 60.4616 68.6581C60.2832 68.9616 60.0286 69.2001 59.6978 69.3735C59.367 69.5441 58.9729 69.6294 58.5155 69.6294H57.0052V71.78H55.7322V65.6706H58.4637C59.1915 65.6706 59.751 65.8398 60.1422 66.178C60.5364 66.5133 60.7334 66.9888 60.7334 67.6045ZM59.4518 67.6261C59.4518 66.9844 59.075 66.6636 58.3213 66.6636H57.0052V68.6451H58.3558C58.7068 68.6451 58.9772 68.5584 59.1671 68.3849C59.3569 68.2086 59.4518 67.9557 59.4518 67.6261ZM67.458 70.0369C67.458 70.5919 67.2508 71.0212 66.8366 71.3247C66.4223 71.6282 65.847 71.78 65.1106 71.78H62.0685V65.6706H64.8517C65.5938 65.6706 66.1548 65.8007 66.5346 66.0609C66.9171 66.3181 67.1085 66.6997 67.1085 67.2056C67.1085 67.5524 67.0121 67.8458 66.8193 68.0858C66.6295 68.3228 66.3389 68.4832 65.9477 68.5671C66.4396 68.6249 66.8136 68.781 67.0696 69.0353C67.3285 69.2869 67.458 69.6207 67.458 70.0369ZM65.8269 67.379C65.8269 67.1044 65.7391 66.9093 65.5636 66.7936C65.391 66.6781 65.1336 66.6202 64.7913 66.6202H63.3414V68.1335H64.7999C65.1595 68.1335 65.4198 68.0713 65.581 67.947C65.7449 67.8198 65.8269 67.6305 65.8269 67.379ZM66.1807 69.9372C66.1807 69.3649 65.7722 69.0787 64.9552 69.0787H63.3414V70.8304H65.0027C65.4112 70.8304 65.7089 70.7567 65.8959 70.6093C66.0858 70.4589 66.1807 70.2349 66.1807 69.9372ZM72.97 67.0755L70.3421 71.78H68.8923V65.6706H70.0228V69.2218C70.0228 69.375 70.02 69.5513 70.0142 69.7508C70.0085 69.9502 69.9998 70.1714 69.9883 70.4142L72.6334 65.6706H74.0661V71.78H72.9355V68.1769C72.9355 68.0641 72.9384 67.9167 72.9441 67.7346C72.9499 67.5496 72.9585 67.3299 72.97 67.0755ZM78.5297 70.8608C79.3007 70.8608 79.8339 70.4734 80.1307 69.6987L81.239 70.1194C81.0004 70.709 80.6499 71.1484 80.1867 71.4374C79.7264 71.7236 79.1741 71.8667 78.5297 71.8667C77.8794 71.8667 77.3256 71.7424 76.8683 71.4938C76.411 71.2423 76.0611 70.8796 75.8196 70.4055C75.581 69.9315 75.4617 69.362 75.4617 68.6971C75.4617 68.0265 75.5766 67.4599 75.8071 66.9974C76.0368 66.5349 76.3763 66.1837 76.8248 65.9438C77.2741 65.701 77.8234 65.5796 78.4737 65.5796C79.1866 65.5796 79.7676 65.7241 80.2169 66.0132C80.6653 66.2994 80.9805 66.7214 81.1617 67.2793L80.0401 67.5871C79.9451 67.2807 79.7581 67.0379 79.4789 66.8587C79.2028 66.6766 78.8758 66.5856 78.4995 66.5856C77.9236 66.5856 77.4869 66.7648 77.1872 67.1232C76.8911 67.4816 76.7431 68.0063 76.7431 68.6971C76.7431 69.1654 76.8108 69.56 76.9456 69.8809C77.0841 70.2017 77.2851 70.446 77.5502 70.6136C77.8175 70.7784 78.1438 70.8608 78.5297 70.8608ZM83.7915 69.1611V71.78H82.5182V65.6706H83.7915V68.1031H86.4405V65.6706H87.7137V71.78H86.4405V69.1611H83.7915ZM94.6193 69.9112C94.6193 70.2783 94.5287 70.6035 94.3475 70.8868C94.1664 71.1672 93.9072 71.3869 93.5706 71.5459C93.2341 71.7019 92.8342 71.78 92.371 71.78H89.3464V65.6706H90.6197V68.1031H92.5094C93.1855 68.1031 93.7061 68.2621 94.0714 68.5801C94.4367 68.8952 94.6193 69.3389 94.6193 69.9112ZM96.8161 65.6706V71.78H95.5428V65.6706H96.8161ZM93.3335 69.9285C93.3335 69.6597 93.2326 69.4531 93.0315 69.3085C92.8327 69.1611 92.5352 69.0873 92.1382 69.0873H90.6197V70.7827H92.164C92.5551 70.7827 92.8474 70.7119 93.0404 70.5702C93.2355 70.4257 93.3335 70.2119 93.3335 69.9285ZM102.518 67.0755L99.8899 71.78H98.4399V65.6706H99.5703V69.2218C99.5703 69.375 99.5674 69.5513 99.5622 69.7508C99.5564 69.9502 99.5475 70.1714 99.5357 70.4142L102.181 65.6706H103.613V71.78H102.483V68.1769C102.483 68.0641 102.486 67.9167 102.492 67.7346C102.498 67.5496 102.506 67.3299 102.518 67.0755ZM101.055 65.2154C100.48 65.2154 100.048 65.0969 99.7603 64.8598C99.4753 64.6228 99.3214 64.2499 99.2986 63.7411H100.266C100.294 64.3164 100.557 64.604 101.055 64.604C101.553 64.604 101.816 64.3164 101.844 63.7411H102.811C102.788 64.2528 102.632 64.6271 102.345 64.8642C102.06 65.0983 101.63 65.2154 101.055 65.2154ZM108.139 71.78V65.6706H109.412V70.722H111.867V65.6706H113.097V70.722H113.939V73.549H112.86V71.78H108.139ZM119.995 70.7914V71.78H115.036V65.6706H119.818V66.6593H116.309V68.1942H119.554V69.1827H116.309V70.7914H119.995ZM122.646 69.1611V71.78H121.372V65.6706H122.646V68.1031H125.295V65.6706H126.568V71.78H125.295V69.1611H122.646ZM130.945 66.6593V71.78H129.672V66.6593H127.709V65.6706H132.913V66.6593H130.945ZM139.046 67.6045C139.046 68.0005 138.956 68.3517 138.774 68.6581C138.596 68.9616 138.341 69.2001 138.011 69.3735C137.68 69.5441 137.286 69.6294 136.828 69.6294H135.318V71.78H134.045V65.6706H136.776C137.504 65.6706 138.064 65.8398 138.455 66.178C138.85 66.5133 139.046 66.9888 139.046 67.6045ZM137.765 67.6261C137.765 66.9844 137.388 66.6636 136.634 66.6636H135.318V68.6451H136.669C137.019 68.6451 137.29 68.5584 137.48 68.3849C137.67 68.2086 137.765 67.9557 137.765 67.6261Z" fill="#FE0E36"/>
</svg>
