<svg width="31" height="31" viewBox="0 0 31 31" fill="none" xmlns="http://www.w3.org/2000/svg">
<path d="M27.3219 9.77053V6.30511C27.3219 5.86975 26.9691 5.51695 26.5337 5.51695H22.5165L30.5642 1.49311C30.9535 1.29845 31.1113 0.825096 30.9166 0.435665C30.7222 0.0464427 30.2487 -0.111167 29.8592 0.0832878L18.9918 5.51695H13.661C13.2256 5.51695 12.8728 5.86975 12.8728 6.30511V14.7119H8.71215C8.85327 14.3898 8.93218 14.0345 8.93218 13.661C8.93218 12.2123 7.75366 11.0339 6.30511 11.0339C4.85657 11.0339 3.67804 12.2124 3.67804 13.661C3.67804 14.0345 3.75695 14.3898 3.89807 14.7119H0.788152C0.352795 14.7119 0 15.0646 0 15.4999V19.1778C0 19.6132 0.352795 19.966 0.788152 19.966H3.67794V30.2118C3.67794 30.6471 4.03073 30.9999 4.46609 30.9999H8.14403C8.57939 30.9999 8.93218 30.6471 8.93218 30.2118V29.1609H21.6608C21.9125 29.9089 22.0826 30.3894 22.1132 30.4756C22.2249 30.7898 22.5223 30.9998 22.8558 30.9998H26.5337C26.8665 30.9998 27.1635 30.7906 27.2757 30.4774C27.4277 30.0527 30.9998 20.0242 30.9998 15.4999C30.9999 12.9607 29.4901 10.7687 27.3219 9.77053ZM14.4491 7.09315H25.7457V9.28413C25.4037 9.22652 25.0529 9.19489 24.6948 9.19489C21.2182 9.19489 18.3898 12.0233 18.3898 15.4999C18.3898 16.3075 18.5078 17.3017 18.7013 18.3897H14.4491V7.09315ZM6.30501 12.6101C6.8844 12.6101 7.35588 13.0816 7.35588 13.661C7.35588 14.2404 6.8844 14.7119 6.30501 14.7119C5.72561 14.7119 5.25414 14.2404 5.25414 13.661C5.25414 13.0816 5.72561 12.6101 6.30501 12.6101ZM7.35588 29.4236H5.25424V19.966H7.35588V29.4236ZM8.14403 18.3898H4.46609H1.5763V16.2882H12.8728V18.3898H8.14403ZM8.93218 27.5846V19.966H19.0173C19.5982 22.5979 20.4704 25.4966 21.1422 27.5846H8.93218ZM25.9745 29.4236H23.4163C22.6799 27.2795 19.966 19.1304 19.966 15.4999C19.966 12.8923 22.0873 10.7711 24.6948 10.7711C27.3024 10.7711 29.4236 12.8923 29.4236 15.4999C29.4236 19.1923 26.7117 27.2908 25.9745 29.4236Z" fill="#FE0E36"/>
<path d="M24.6948 12.8728C23.2462 12.8728 22.0677 14.0514 22.0677 15.4999C22.0677 16.9486 23.2463 18.127 24.6948 18.127C26.1434 18.127 27.3219 16.9484 27.3219 15.4999C27.3219 14.0514 26.1435 12.8728 24.6948 12.8728ZM24.6948 16.5508C24.1154 16.5508 23.6439 16.0793 23.6439 15.4999C23.6439 14.9205 24.1154 14.449 24.6948 14.449C25.2742 14.449 25.7457 14.9205 25.7457 15.4999C25.7457 16.0793 25.2742 16.5508 24.6948 16.5508Z" fill="#FE0E36"/>
<path d="M17.4697 9.35251C17.1078 9.35251 16.8135 9.65896 16.8135 10.0356C16.8135 10.4121 17.1079 10.7186 17.4697 10.7186C17.8316 10.7186 18.1259 10.4121 18.1259 10.0356C18.126 9.65896 17.8316 9.35251 17.4697 9.35251Z" fill="#FE0E36"/>
<path d="M17.4697 11.6118C17.1078 11.6118 16.8135 11.9183 16.8135 12.2949C16.8135 12.6715 17.1079 12.9779 17.4697 12.9779C17.8316 12.9779 18.1259 12.6715 18.1259 12.2949C18.126 11.9182 17.8316 11.6118 17.4697 11.6118Z" fill="#FE0E36"/>
<path d="M12.2681 21.0694C11.6744 21.0694 11.1914 21.5643 11.1914 22.1727C11.1914 22.7812 11.6744 23.2761 12.2681 23.2761C12.8618 23.2761 13.3447 22.7812 13.3447 22.1727C13.3447 21.5643 12.8618 21.0694 12.2681 21.0694Z" fill="#FE0E36"/>
<path d="M15.7359 21.0694C15.1422 21.0694 14.6592 21.5643 14.6592 22.1727C14.6592 22.7812 15.1422 23.2761 15.7359 23.2761C16.3296 23.2761 16.8125 22.7812 16.8125 22.1727C16.8124 21.5643 16.3295 21.0694 15.7359 21.0694Z" fill="#FE0E36"/>
</svg>
