<svg width="31" height="31" viewBox="0 0 31 31" fill="none" xmlns="http://www.w3.org/2000/svg">
<path d="M30.8966 27.3834C30.8966 27.0734 30.69 26.8667 30.38 26.8667H28.3134V8.85189C29.8974 8.10789 31 6.51357 31 4.65C31 2.06665 28.9334 0 26.35 0C23.7666 0 21.7 2.06665 21.7 4.65C21.7 6.49662 22.7563 8.07877 24.2834 8.83125V26.8667H22.2167V10.85C22.2167 9.40335 21.0801 8.26665 19.6334 8.26665H16.0167C16.0167 7.95665 15.8101 7.75 15.5001 7.75H9.3C8.99 7.75 8.78335 7.95665 8.78335 8.26665H5.16665C3.72 8.26665 2.58329 9.40329 2.58329 10.85V26.8666H0.516647C0.206646 26.8666 0 27.0733 0 27.3833V28.1583C0 29.8116 1.085 31 2.58335 31H28.4167C29.9151 31 31.0001 29.8116 30.8967 28.1584V27.3834H30.8966ZM22.7334 4.65C22.7334 2.635 24.335 1.03335 26.35 1.03335C28.365 1.03335 29.9666 2.635 29.9666 4.65C29.9666 6.16676 29.0297 7.44908 27.7069 7.99055C27.6845 7.99552 27.6625 8.00133 27.6416 8.00829C27.5753 8.0373 27.5078 8.06309 27.4396 8.08749C27.0798 8.20331 26.6963 8.26665 26.2983 8.26665C24.335 8.26665 22.7334 6.665 22.7334 4.65ZM14.9316 8.78335C14.9316 8.87236 14.9493 8.94405 14.9833 9.00871V14.2084L12.7099 12.5034C12.5033 12.3484 12.2966 12.3484 12.0899 12.5034L9.81659 14.2084V8.78335H14.9316ZM3.61665 10.85C3.61665 9.97165 4.28829 9.3 5.16665 9.3H8.78329V14.725C8.78329 15.0866 8.98994 15.3966 9.29994 15.5C9.60994 15.6034 9.97159 15.5 10.1783 15.2934L12.3999 13.5884L14.6216 15.2417C14.7766 15.3967 14.9832 15.5001 15.1899 15.5001C15.2933 15.5001 15.3966 15.5001 15.4999 15.4484C15.8099 15.2934 16.0166 15.0351 16.0166 14.6734V9.3H19.6332C20.5116 9.3 21.1832 9.97165 21.1832 10.85V26.8666H3.61665V10.85ZM29.9666 28.1584C29.9666 29.0884 29.5016 29.9667 28.4166 29.9667H2.58335C1.49835 29.9667 1.03335 29.0884 1.03335 28.1584V27.9H3.1H21.7H24.8C25.11 27.9 25.3166 27.6934 25.3166 27.3834V9.19665C25.9883 9.35165 26.7116 9.35165 27.3833 9.19665V27.3833C27.3833 27.6933 27.5899 27.8999 27.8999 27.8999H29.9666V28.1584H29.9666Z" fill="#FE0E36"/>
<path d="M27.9 6.71664C28.055 6.71664 28.1584 6.66499 28.2616 6.56164C28.4683 6.35499 28.4683 6.04499 28.2616 5.83829L26.7116 4.28829C26.505 4.08164 26.195 4.08164 25.9883 4.28829C25.7816 4.49493 25.7816 4.80493 25.9883 5.01164L27.5383 6.56164C27.6416 6.66499 27.745 6.71664 27.9 6.71664Z" fill="#FE0E36"/>
<path d="M9.81665 22.2166H5.16665C4.85665 22.2166 4.65 22.4233 4.65 22.7333V25.3166C4.65 25.6266 4.85665 25.8333 5.16665 25.8333H9.81665C10.1266 25.8333 10.3333 25.6266 10.3333 25.3166V22.7333C10.3334 22.4234 10.1266 22.2166 9.81665 22.2166ZM9.3 24.8H5.68335V23.25H9.3V24.8Z" fill="#FE0E36"/>
</svg>
