<svg width="21" height="31" viewBox="0 0 21 31" fill="none" xmlns="http://www.w3.org/2000/svg">
<path d="M10.3367 7.22562C11.7616 7.22562 12.9209 6.06638 12.9209 4.64143C12.9209 2.95811 10.9636 0.462833 10.7404 0.183743C10.5435 -0.0612478 10.13 -0.0612478 9.93308 0.183743C9.70983 0.462833 7.75256 2.95811 7.75256 4.64143C7.7525 6.06638 8.91174 7.22562 10.3367 7.22562ZM10.3367 1.36782C10.9765 2.2645 11.8872 3.73905 11.8872 4.64143C11.8872 5.49627 11.1915 6.19193 10.3367 6.19193C9.48186 6.19193 8.78619 5.49627 8.78619 4.64143C8.78619 3.74063 9.69735 2.26559 10.3367 1.36782Z" fill="#FE0E36"/>
<path d="M3.35168 7.15172L8.26937 10.1023V12.9108C8.26937 13.1961 8.50037 13.4276 8.78619 13.4276C9.072 13.4276 9.303 13.1961 9.303 12.9108V10.3266H11.3703V12.9108C11.3703 13.1961 11.6013 13.4276 11.8871 13.4276C12.1729 13.4276 12.4039 13.1961 12.4039 12.9108V12.394H14.4713V12.9108C14.4713 13.1961 14.7023 13.4276 14.9881 13.4276C15.2739 13.4276 15.5049 13.1961 15.5049 12.9108V10.8435C15.5049 10.5582 15.2739 10.3267 14.9881 10.3267C14.7023 10.3267 14.4713 10.5582 14.4713 10.8435V11.3603H12.404V10.1023L17.3217 7.15172C17.5207 7.03283 17.6157 6.79456 17.5537 6.57083C17.4917 6.3471 17.2875 6.19199 17.0555 6.19199H13.9545C13.6687 6.19199 13.4377 6.42353 13.4377 6.7088C13.4377 6.99407 13.6687 7.22561 13.9545 7.22561H15.1898L11.744 9.29293H10.8535V8.25924C10.8535 7.97397 10.6225 7.74243 10.3367 7.74243C10.0509 7.74243 9.81987 7.97397 9.81987 8.25924V9.29293H8.92937L5.48362 7.22561H6.71887C7.00469 7.22561 7.23569 6.99407 7.23569 6.7088C7.23569 6.42353 7.00469 6.19199 6.71887 6.19199H3.61787C3.38584 6.19199 3.18167 6.34704 3.11965 6.57083C3.05763 6.79462 3.15266 7.03283 3.35168 7.15172Z" fill="#FE0E36"/>
<path d="M16.0182 20.637C16.288 20.5424 16.4291 20.2467 16.3345 19.9775C15.8249 18.5329 14.4533 17.5623 12.9208 17.5623C12.635 17.5623 12.404 17.7939 12.404 18.0791C12.404 18.3644 12.635 18.5959 12.9208 18.5959C14.0155 18.5959 14.9959 19.289 15.3592 20.3211C15.4341 20.5335 15.6337 20.6663 15.8466 20.6663C15.904 20.6664 15.9619 20.6571 16.0182 20.637Z" fill="#FE0E36"/>
<path d="M19.1228 27.899H3.61781C3.332 27.899 3.101 28.1305 3.101 28.4158C3.101 28.7011 3.332 28.9326 3.61781 28.9326H19.1228C19.4081 28.9326 19.6396 29.1647 19.6396 29.4494C19.6396 29.7342 19.4081 29.9662 19.1228 29.9662H1.5505C1.26523 29.9662 1.03369 29.7342 1.03369 29.4494C1.03369 29.1647 1.26523 28.9326 1.5505 28.9326C1.83631 28.9326 2.06731 28.7011 2.06731 28.4158V21.1801C2.06731 18.0987 4.67058 15.4949 7.7525 15.4949H12.9208C16.0027 15.4949 18.606 18.0987 18.606 21.1801V26.3484C18.606 26.6337 18.837 26.8652 19.1228 26.8652C19.4086 26.8652 19.6396 26.6337 19.6396 26.3484V21.1801C19.6396 17.4755 16.6255 14.4613 12.9208 14.4613H7.7525C4.04784 14.4613 1.03369 17.4755 1.03369 21.1801V27.9874C0.432081 28.2008 0 28.7755 0 29.4495C0 30.3043 0.695666 31 1.5505 31H19.1228C19.9777 31 20.6733 30.3043 20.6733 29.4495C20.6733 28.5947 19.9777 27.899 19.1228 27.899Z" fill="#FE0E36"/>
<path d="M16.0219 23.7643C16.3077 23.7643 16.5387 23.5328 16.5387 23.2475V22.2138C16.5387 21.9285 16.3077 21.697 16.0219 21.697C15.7361 21.697 15.5051 21.9285 15.5051 22.2138V23.2475C15.505 23.5328 15.7361 23.7643 16.0219 23.7643Z" fill="#FE0E36"/>
</svg>
