<svg width="31" height="31" viewBox="0 0 31 31" fill="none" xmlns="http://www.w3.org/2000/svg">
<path d="M15.5 13.2594C12.9106 13.2594 10.804 15.366 10.804 17.9554C10.804 20.5448 12.9107 22.6514 15.5 22.6514C18.0895 22.6514 20.196 20.5448 20.196 17.9554C20.196 15.366 18.0895 13.2594 15.5 13.2594ZM15.5 21.7307C13.4183 21.7307 11.7248 20.0371 11.7248 17.9555C11.7248 15.8738 13.4183 14.1803 15.5 14.1803C17.5817 14.1803 19.2752 15.8738 19.2752 17.9555C19.2752 20.0371 17.5817 21.7307 15.5 21.7307Z" fill="#FE0E36"/>
<path d="M26.9854 5.83169V2.45542H25.159V0H5.84107V2.45542H4.01462V5.83163H5.86439L6.11917 10.7457H5.50443L6.25207 25.1652H6.8668L7.16923 31H23.8308L24.1333 25.1652H24.748L25.4957 10.7457H24.8809L25.1357 5.83163H26.9854V5.83169ZM23.8737 24.2444H10.8347H10.8346V25.1652H10.8347H23.2112L22.9565 30.0793H8.04347L7.78869 25.1652H9.60667V24.2444H7.12624L6.47415 11.6665H24.5257L23.8737 24.2444ZM6.78633 5.83169H24.2136L23.9588 10.7457H7.04111L6.78633 5.83169ZM5.81655 4.9109H4.93535V3.37621H5.84107H9.60679V2.45542H6.76187V0.920797H24.2381V2.45542H10.8347V3.37621H25.1589H26.0646V4.91084H25.1834H5.81655V4.9109Z" fill="#FE0E36"/>
</svg>
