<svg width="38" height="38" viewBox="0 0 38 38" fill="none" xmlns="http://www.w3.org/2000/svg">
<path d="M35.9987 22.3284H23.7917C21.0494 19.6438 17.8837 20.2342 17.3837 20.1554V18.7903C18.8617 17.761 19.8894 16.2705 20.3558 14.6239C21.7679 14.2666 22.8161 12.9852 22.8161 11.4636C22.8161 10.0472 21.9077 8.83952 20.6431 8.39102V8.13171C20.6431 3.93812 17.2314 0.526367 13.0378 0.526367C8.84416 0.526367 5.4324 3.93812 5.4324 8.13171V8.39102C4.16781 8.83952 3.25944 10.0472 3.25944 11.4636C3.25944 12.9847 4.30688 14.2658 5.71836 14.6236C6.2067 16.3616 7.29064 17.814 8.69184 18.7938V20.1554H7.60536C3.41176 20.1554 0 23.5672 0 27.7607V36.525C0 37.125 0.486453 37.6115 1.08648 37.6115C1.68651 37.6115 2.17296 37.125 2.17296 36.525V27.7607C2.17296 24.7653 4.60993 22.3284 7.60536 22.3284H8.82939C9.31302 24.2006 11.0165 25.5878 13.0378 25.5878C15.059 25.5878 16.7625 24.2006 17.2461 22.3284C18.1617 22.3626 18.935 22.215 20.0942 22.5788C19.8543 22.7781 19.7014 23.0786 19.7014 23.4148V36.525C19.7014 37.125 20.1879 37.6115 20.7879 37.6115H35.9986C36.5987 37.6115 37.0851 37.125 37.0851 36.525V23.4148C37.0852 22.8148 36.5987 22.3284 35.9987 22.3284ZM13.0378 2.69932C15.4453 2.69932 17.4909 4.27414 18.2015 6.44731C14.8919 5.86677 10.7792 8.54102 7.60536 8.36096V8.13171C7.60536 5.13629 10.0423 2.69932 13.0378 2.69932ZM6.55647 12.5492C5.95681 12.5768 5.4324 12.0848 5.4324 11.4636C5.4324 10.9001 5.86359 10.4357 6.41335 10.3825C10.6579 11.3515 15.8053 7.52835 18.4702 8.79917V9.29062C18.4702 9.89065 18.9566 10.3771 19.5566 10.3771C20.1557 10.3771 20.6431 10.8645 20.6431 11.4636C20.6431 12.0862 20.1171 12.5767 19.519 12.5492C18.9691 12.5217 18.4852 12.9118 18.3945 13.4554C17.9564 16.0786 15.7036 17.9824 13.0378 17.9824C10.3097 17.9824 8.10297 15.9906 7.68119 13.456C7.59058 12.9121 7.10587 12.5222 6.55647 12.5492ZM13.0378 23.4148C11.8396 23.4148 10.8648 22.44 10.8648 21.2419V19.8418C12.2585 20.2549 13.7676 20.2667 15.2107 19.8364V21.2419C15.2107 22.44 14.2359 23.4148 13.0378 23.4148ZM27.3069 24.5013H29.4798V26.6743H27.3069V24.5013ZM34.9122 35.4385H21.8745V24.5013H25.1339V27.7607C25.1339 28.3608 25.6204 28.8472 26.2204 28.8472H30.5663C31.1663 28.8472 31.6528 28.3608 31.6528 27.7607V24.5013H34.9122V35.4385Z" fill="#808080"/>
<path d="M5.4324 28.8472C4.83237 28.8472 4.34592 29.3337 4.34592 29.9337V36.525C4.34592 37.125 4.83237 37.6115 5.4324 37.6115C6.03243 37.6115 6.51888 37.125 6.51888 36.525V29.9337C6.51888 29.3337 6.03243 28.8472 5.4324 28.8472Z" fill="#808080"/>
<path d="M16.2972 28.8472H9.77832C9.17829 28.8472 8.69184 29.3337 8.69184 29.9337C8.69184 30.5337 9.17829 31.0202 9.77832 31.0202H16.2972C16.8972 31.0202 17.3837 30.5337 17.3837 29.9337C17.3837 29.3337 16.8972 28.8472 16.2972 28.8472Z" fill="#808080"/>
<path d="M16.2972 33.1931H9.77832C9.17829 33.1931 8.69184 33.6796 8.69184 34.2796C8.69184 34.8796 9.17829 35.3661 9.77832 35.3661H16.2972C16.8972 35.3661 17.3837 34.8796 17.3837 34.2796C17.3837 33.6796 16.8972 33.1931 16.2972 33.1931Z" fill="#808080"/>
</svg>
