<svg width="38" height="26" viewBox="0 0 38 26" fill="none" xmlns="http://www.w3.org/2000/svg">
<path d="M3.67563 25.3137H34.5799C35.3992 25.3128 36.1848 24.9869 36.7641 24.4076C37.3435 23.8282 37.6694 23.0427 37.6703 22.2233V3.68076C37.6694 2.86141 37.3435 2.07588 36.7641 1.49651C36.1848 0.917145 35.3992 0.591252 34.5799 0.590332H3.67563C2.85628 0.591252 2.07075 0.917145 1.49139 1.49651C0.912018 2.07588 0.586125 2.86141 0.585205 3.68076V22.2233C0.586125 23.0427 0.912018 23.8282 1.49139 24.4076C2.07075 24.9869 2.85628 25.3128 3.67563 25.3137ZM1.82138 3.68076C1.82195 3.18915 2.01749 2.71785 2.36511 2.37023C2.71272 2.02262 3.18403 1.82707 3.67563 1.8265H34.5799C35.0715 1.82707 35.5428 2.02262 35.8904 2.37023C36.238 2.71785 36.4336 3.18915 36.4341 3.68076V22.2233C36.4336 22.7149 36.238 23.1862 35.8904 23.5338C35.5428 23.8814 35.0715 24.077 34.5799 24.0776H3.67563C3.18403 24.077 2.71272 23.8814 2.36511 23.5338C2.01749 23.1862 1.82195 22.7149 1.82138 22.2233V3.68076Z" fill="#808080"/>
<path d="M6.14797 10.4797H8.62031C9.11191 10.4791 9.58322 10.2836 9.93083 9.93596C10.2785 9.58835 10.474 9.11704 10.4746 8.62544V6.1531C10.474 5.66149 10.2785 5.19019 9.93083 4.84257C9.58322 4.49496 9.11191 4.29942 8.62031 4.29884H6.14797C5.65637 4.29942 5.18506 4.49496 4.83745 4.84257C4.48983 5.19019 4.29429 5.66149 4.29372 6.1531V8.62544C4.29429 9.11704 4.48983 9.58835 4.83745 9.93596C5.18506 10.2836 5.65637 10.4791 6.14797 10.4797ZM6.14797 5.53501H8.62031C8.78418 5.5352 8.94129 5.60038 9.05716 5.71625C9.17303 5.83212 9.23821 5.98923 9.2384 6.1531V6.77118H8.62031C8.45638 6.77118 8.29917 6.8363 8.18326 6.95222C8.06735 7.06813 8.00223 7.22534 8.00223 7.38927C8.00223 7.55319 8.06735 7.71041 8.18326 7.82632C8.29917 7.94223 8.45638 8.00735 8.62031 8.00735H9.2384V8.62544C9.23821 8.78931 9.17303 8.94641 9.05716 9.06229C8.94129 9.17816 8.78418 9.24334 8.62031 9.24352H6.14797C5.9841 9.24334 5.827 9.17816 5.71112 9.06229C5.59525 8.94641 5.53007 8.78931 5.52989 8.62544V8.00735H6.14797C6.3119 8.00735 6.46911 7.94223 6.58502 7.82632C6.70094 7.71041 6.76606 7.55319 6.76606 7.38927C6.76606 7.22534 6.70094 7.06813 6.58502 6.95222C6.46911 6.8363 6.3119 6.77118 6.14797 6.77118H5.52989V6.1531C5.53007 5.98923 5.59525 5.83212 5.71112 5.71625C5.827 5.60038 5.9841 5.5352 6.14797 5.53501Z" fill="#808080"/>
<path d="M4.9118 19.1329H14.1831C14.347 19.1329 14.5042 19.0678 14.6201 18.9519C14.736 18.8359 14.8012 18.6787 14.8012 18.5148C14.8012 18.3509 14.736 18.1937 14.6201 18.0777C14.5042 17.9618 14.347 17.8967 14.1831 17.8967H4.9118C4.74787 17.8967 4.59066 17.9618 4.47475 18.0777C4.35884 18.1937 4.29372 18.3509 4.29372 18.5148C4.29372 18.6787 4.35884 18.8359 4.47475 18.9519C4.59066 19.0678 4.74787 19.1329 4.9118 19.1329Z" fill="#808080"/>
<path d="M4.9118 21.6052L17.2735 21.6057C17.4374 21.6057 17.5946 21.5406 17.7106 21.4247C17.8265 21.3087 17.8916 21.1515 17.8916 20.9876C17.8916 20.8237 17.8265 20.6665 17.7106 20.5506C17.5946 20.4346 17.4374 20.3695 17.2735 20.3695L4.9118 20.3691C4.74787 20.3691 4.59066 20.4342 4.47475 20.5501C4.35884 20.666 4.29372 20.8232 4.29372 20.9871C4.29372 21.1511 4.35884 21.3083 4.47475 21.4242C4.59066 21.5401 4.74787 21.6052 4.9118 21.6052Z" fill="#808080"/>
<path d="M29.0171 22.8414C29.5596 22.8418 30.0925 22.6985 30.5616 22.426C31.0313 22.6978 31.5644 22.841 32.1071 22.8414C32.6498 22.8417 33.183 22.6992 33.6531 22.428C34.1232 22.1569 34.5137 21.7667 34.7851 21.2968C35.0566 20.8268 35.1995 20.2937 35.1995 19.751C35.1995 19.2083 35.0566 18.6751 34.7851 18.2052C34.5137 17.7352 34.1232 17.3451 33.6531 17.0739C33.183 16.8028 32.6498 16.6602 32.1071 16.6605C31.5644 16.6609 31.0313 16.8041 30.5616 17.0759C30.1511 16.8389 29.6916 16.6994 29.2186 16.6684C28.7457 16.6374 28.2719 16.7156 27.834 16.897C27.3961 17.0783 27.0058 17.358 26.6933 17.7144C26.3808 18.0708 26.1544 18.4942 26.0318 18.9521C25.9092 19.4099 25.8935 19.8899 25.986 20.3547C26.0785 20.8196 26.2768 21.2569 26.5654 21.6329C26.854 22.0089 27.2252 22.3135 27.6503 22.523C28.0755 22.7326 28.5431 22.8415 29.0171 22.8414ZM33.9618 19.751C33.9619 20.0423 33.8934 20.3295 33.7617 20.5894C33.6301 20.8493 33.439 21.0745 33.2041 21.2467C32.9691 21.4189 32.6969 21.5333 32.4094 21.5806C32.122 21.6279 31.8274 21.6068 31.5496 21.519C31.9127 21.0009 32.1075 20.3836 32.1075 19.751C32.1075 19.1184 31.9127 18.5011 31.5496 17.983C31.8274 17.8951 32.122 17.874 32.4094 17.9213C32.6969 17.9686 32.9692 18.083 33.2041 18.2552C33.4391 18.4274 33.6302 18.6526 33.7618 18.9125C33.8935 19.1724 33.962 19.4596 33.9618 19.751ZM29.0171 17.8967C29.3839 17.8967 29.7424 18.0055 30.0473 18.2092C30.3522 18.413 30.5899 18.7026 30.7302 19.0414C30.8706 19.3802 30.9073 19.753 30.8357 20.1127C30.7642 20.4724 30.5876 20.8028 30.3283 21.0621C30.069 21.3214 29.7386 21.498 29.3789 21.5696C29.0192 21.6411 28.6463 21.6044 28.3075 21.4641C27.9687 21.3237 27.6791 21.0861 27.4754 20.7811C27.2716 20.4762 27.1629 20.1177 27.1629 19.751C27.1634 19.2594 27.359 18.7881 27.7066 18.4404C28.0542 18.0928 28.5255 17.8973 29.0171 17.8967Z" fill="#808080"/>
<path d="M32.4492 10.4144C32.5218 10.4508 32.6008 10.4725 32.6818 10.4783C32.7628 10.4841 32.8441 10.4738 32.9211 10.4482C32.9981 10.4225 33.0693 10.3819 33.1307 10.3287C33.192 10.2755 33.2422 10.2107 33.2784 10.138C33.3064 10.0822 33.9618 8.7557 33.9618 7.38927C33.9618 6.02284 33.3064 4.69635 33.2784 4.64049C33.2045 4.49512 33.0761 4.38488 32.9212 4.33379C32.7663 4.28269 32.5975 4.29488 32.4516 4.36771C32.3056 4.44053 32.1944 4.56808 32.1421 4.72257C32.0898 4.87705 32.1007 5.04594 32.1724 5.19244C32.1779 5.20364 32.7256 6.31998 32.7256 7.38927C32.7256 8.45856 32.1779 9.57489 32.1728 9.58517C32.0995 9.73178 32.0874 9.90151 32.1393 10.057C32.1911 10.2125 32.3026 10.3411 32.4492 10.4144Z" fill="#808080"/>
<path d="M27.3439 9.0625C27.4013 9.1199 27.4694 9.16543 27.5444 9.19649C27.6194 9.22756 27.6998 9.24355 27.7809 9.24355C27.8621 9.24355 27.9425 9.22756 28.0175 9.19649C28.0925 9.16543 28.1606 9.1199 28.218 9.0625C28.2998 8.98084 29.0171 8.23913 29.0171 7.38927C29.0171 6.5394 28.2998 5.7977 28.218 5.71603C28.1023 5.59989 27.9452 5.53447 27.7813 5.53415C27.6174 5.53383 27.46 5.59864 27.3439 5.71433C27.2277 5.83003 27.1623 5.98712 27.162 6.15105C27.1617 6.31498 27.2265 6.47232 27.3422 6.58846C27.5191 6.76825 27.7809 7.14713 27.7809 7.38927C27.7809 7.6314 27.5191 8.01029 27.3439 8.18837C27.2865 8.24577 27.241 8.31391 27.2099 8.3889C27.1788 8.46389 27.1628 8.54427 27.1628 8.62544C27.1628 8.70661 27.1788 8.78699 27.2099 8.86198C27.241 8.93697 27.2865 9.00511 27.3439 9.0625Z" fill="#808080"/>
<path d="M4.9118 14.1882H8.62031C8.78424 14.1882 8.94145 14.1231 9.05736 14.0072C9.17328 13.8913 9.2384 13.734 9.2384 13.5701C9.2384 13.4062 9.17328 13.249 9.05736 13.1331C8.94145 13.0172 8.78424 12.952 8.62031 12.952H4.9118C4.74787 12.952 4.59066 13.0172 4.47475 13.1331C4.35884 13.249 4.29372 13.4062 4.29372 13.5701C4.29372 13.734 4.35884 13.8913 4.47475 14.0072C4.59066 14.1231 4.74787 14.1882 4.9118 14.1882Z" fill="#808080"/>
<path d="M12.3288 14.1882H16.0373C16.2013 14.1882 16.3585 14.1231 16.4744 14.0072C16.5903 13.8913 16.6554 13.734 16.6554 13.5701C16.6554 13.4062 16.5903 13.249 16.4744 13.1331C16.3585 13.0172 16.2013 12.952 16.0373 12.952H12.3288C12.1649 12.952 12.0077 13.0172 11.8918 13.1331C11.7759 13.249 11.7107 13.4062 11.7107 13.5701C11.7107 13.734 11.7759 13.8913 11.8918 14.0072C12.0077 14.1231 12.1649 14.1882 12.3288 14.1882Z" fill="#808080"/>
<path d="M19.7458 14.1882H23.4544C23.6183 14.1882 23.7755 14.1231 23.8914 14.0072C24.0073 13.8913 24.0724 13.734 24.0724 13.5701C24.0724 13.4062 24.0073 13.249 23.8914 13.1331C23.7755 13.0172 23.6183 12.952 23.4544 12.952H19.7458C19.5819 12.952 19.4247 13.0172 19.3088 13.1331C19.1929 13.249 19.1278 13.4062 19.1278 13.5701C19.1278 13.734 19.1929 13.8913 19.3088 14.0072C19.4247 14.1231 19.5819 14.1882 19.7458 14.1882Z" fill="#808080"/>
<path d="M27.1629 14.1882H30.8714C31.0353 14.1882 31.1925 14.1231 31.3084 14.0072C31.4243 13.8913 31.4895 13.734 31.4895 13.5701C31.4895 13.4062 31.4243 13.249 31.3084 13.1331C31.1925 13.0172 31.0353 12.952 30.8714 12.952H27.1629C26.9989 12.952 26.8417 13.0172 26.7258 13.1331C26.6099 13.249 26.5448 13.4062 26.5448 13.5701C26.5448 13.734 26.6099 13.8913 26.7258 14.0072C26.8417 14.1231 26.9989 14.1882 27.1629 14.1882Z" fill="#808080"/>
<path d="M30.6904 5.09795C30.5744 4.98203 30.4172 4.91691 30.2533 4.91691C30.0894 4.91691 29.9321 4.98203 29.8162 5.09795C29.7003 5.21387 29.6352 5.37108 29.6352 5.53501C29.6352 5.69894 29.7003 5.85616 29.8162 5.97208C29.8206 5.97648 30.2533 6.45109 30.2533 7.38927C30.2533 8.32744 29.8274 8.79418 29.8093 8.81357L29.8162 8.80646C29.7003 8.92238 29.6352 9.07959 29.6352 9.24352C29.6352 9.40745 29.7003 9.56467 29.8162 9.68059C29.9321 9.7965 30.0894 9.86162 30.2533 9.86162C30.4172 9.86162 30.5744 9.7965 30.6904 9.68059C30.7722 9.59892 31.4895 8.83953 31.4895 7.38927C31.4895 5.93901 30.7722 5.17961 30.6904 5.09795Z" fill="#808080"/>
</svg>
