<svg width="34" height="38" viewBox="0 0 34 38" fill="none" xmlns="http://www.w3.org/2000/svg">
<path d="M33.9221 4.0315C33.9221 2.07511 32.221 0.40918 30.2397 0.40918H5.1939C2.85797 0.40918 0.95752 2.29798 0.95752 4.57148V37.4943L5.28499 34.1771L8.47206 36.6066L11.6763 34.1771L14.873 36.6054L18.0794 34.1771L21.273 36.6058L24.4784 34.1771L28.7908 37.4943V12.2192H33.9221V4.0315ZM26.5582 33.0007L24.4808 31.4215L21.2756 33.8499L18.0824 31.4215L14.8752 33.8505L11.6778 31.4215L8.4759 33.8492L5.29111 31.4215L3.1902 33.0089V4.57148C3.1902 3.49608 4.0891 2.62125 5.19398 2.62125H26.8553C26.6009 3.19527 26.5582 3.78827 26.5582 4.40351V33.0007ZM31.6894 10.0462H28.7908V4.0315C28.7908 3.25394 29.4408 2.62125 30.2397 2.62125C31.0227 2.62125 31.6894 3.258 31.6894 4.0315V10.0462Z" fill="#808080"/>
<path d="M9.17043 5.77413H20.5972V7.94709H9.17043V5.77413Z" fill="#808080"/>
<path d="M6.12434 12.2098H16.817V14.3827H6.12434V12.2098Z" fill="#808080"/>
<path d="M19.4377 12.2098H23.8713V14.3827H19.4377V12.2098Z" fill="#808080"/>
<path d="M6.12434 18.6454H16.817V20.8184H6.12434V18.6454Z" fill="#808080"/>
<path d="M19.4377 18.6454H23.8713V20.8184H19.4377V18.6454Z" fill="#808080"/>
<path d="M5.89639 25.0811H16.589V27.2541H5.89639V25.0811Z" fill="#808080"/>
<path d="M19.2097 25.0811H23.6432V27.2541H19.2097V25.0811Z" fill="#808080"/>
</svg>
