<svg width="98" height="101" viewBox="0 0 98 101" fill="none" xmlns="http://www.w3.org/2000/svg">
<path d="M4.95898 13.8184H48.4743V15.1229C48.4743 12.0232 50.9322 17.6891 53.956 17.6891H79.5417C82.5673 17.6891 85.0218 20.2027 85.0218 23.3008L97.1257 64.9373C97.1257 68.0402 94.6742 70.5506 91.644 70.5506H63.8493H53.9576H4.95918C3.60741 70.5506 2.51375 69.4309 2.51375 68.0497V16.3192C2.51217 14.9366 3.60583 13.8184 4.95898 13.8184Z" fill="#FF7F00"/>
<path d="M94.4082 55.5823L97.1257 64.9375C97.1257 68.0404 94.6742 70.5508 91.644 70.5508H63.8493H53.9576H4.95918C3.60741 70.5508 2.51375 69.4311 2.51375 68.0499V55.5823H94.4082V55.5823Z" fill="#E56505"/>
<path d="M67.6619 23.1494H85.008C85.008 23.2004 85.022 23.2497 85.022 23.3023L90.3 41.4564C90.0168 41.5011 89.7338 41.5488 89.4366 41.5488H67.6619C64.6363 41.5488 62.1802 39.0352 62.1802 35.9355V28.7627C62.1802 25.6598 64.6365 23.1494 67.6619 23.1494Z" fill="#528099"/>
<path d="M87.1547 57.0669C87.1547 59.9484 87.8018 62.2869 88.6028 62.2869C89.3992 62.2869 90.048 59.9469 90.048 57.0669C90.048 54.179 89.3992 51.8423 88.6028 51.8423C87.8018 51.8421 87.1547 54.179 87.1547 57.0669Z" fill="#C1E5F4"/>
<path d="M88.603 62.2883C89.3994 62.2883 90.0482 59.9484 90.0482 57.0684C90.0482 54.1804 89.3994 51.8438 88.603 51.8438" fill="#D9F5FF"/>
<path d="M76.6344 41.5489L62.4711 27.0457C62.9798 25.4338 64.1619 24.1467 65.6942 23.5398L83.2798 41.5489H76.6344Z" fill="#1D5777"/>
<path d="M73.2309 41.5489H67.6621C64.6365 41.5489 62.1804 39.0353 62.1804 35.9356V30.2332L73.2309 41.5489Z" fill="#1D5777"/>
<path d="M79.5279 23.1494H85.008C85.008 23.2004 85.022 23.2497 85.022 23.3023L87.2901 31.0947L79.5279 23.1494Z" fill="#1D5777"/>
<path d="M-2.91705e-06 72.7886C-2.91705e-06 73.9435 0.914739 74.88 2.04237 74.88H95.959C97.09 74.8816 98 73.9435 98 72.7886V65.5887C98 64.4306 97.09 63.4973 95.959 63.4973H2.04394C0.914541 63.4973 0.00157608 64.4324 0.00157608 65.5887V72.7886H-2.91705e-06V72.7886Z" fill="#1D5777"/>
<path d="M2.04237 63.4973H95.959C97.09 63.4973 98 64.4324 98 65.5903V67.1768C98 68.3316 97.09 69.2667 95.959 69.2667H2.04394C0.914541 69.2667 0.00157608 68.33 0.00157608 67.1768V65.5903C-3.78497e-06 64.4324 0.914542 63.4973 2.04237 63.4973Z" fill="#1E759B"/>
<path d="M71.2492 76.1561C71.2492 80.0507 74.337 83.2126 78.1435 83.2126C81.9468 83.2126 85.0347 80.0523 85.0347 76.1561C85.0347 72.255 81.9484 69.0933 78.1435 69.0933C74.3368 69.0931 71.2492 72.2534 71.2492 76.1561Z" fill="#FFC41F"/>
<path d="M78.1417 69.093C74.3368 69.093 71.2474 72.2533 71.2474 76.1558C71.2474 80.0504 74.3352 83.2124 78.1417 83.2124" fill="#FFA522"/>
<path d="M78.1417 86.5337C83.7309 86.5337 88.2777 81.8761 88.2777 76.1545C88.2777 70.4265 83.7309 65.772 78.1417 65.772C72.551 65.772 68.0042 70.4263 68.0042 76.1545C68.0057 81.8761 72.5526 86.5337 78.1417 86.5337ZM78.1417 72.416C80.1531 72.416 81.7894 74.0948 81.7894 76.1561C81.7894 78.2141 80.1529 79.8899 78.1417 79.8899C76.1288 79.8899 74.4893 78.2141 74.4893 76.1561C74.4909 74.0948 76.1288 72.416 78.1417 72.416Z" fill="#1A3D5B"/>
<path d="M18.6045 83.2126C14.7968 83.2126 11.7101 80.0518 11.7101 76.1528C11.7101 72.2538 14.7968 69.093 18.6045 69.093C22.4121 69.093 25.4988 72.2538 25.4988 76.1528C25.4988 80.0518 22.4121 83.2126 18.6045 83.2126Z" fill="#FFC41F"/>
<path d="M23.4843 71.1608C20.7932 68.4067 16.4252 68.4067 13.7355 71.1608C11.0428 73.9164 11.046 78.3878 13.7355 81.1451" fill="#FFA522"/>
<path d="M11.4396 83.4929C15.3938 87.542 21.8244 87.542 25.7786 83.4929C29.7312 79.4438 29.7312 72.8619 25.7786 68.8144C21.8244 64.7621 15.3938 64.7621 11.4396 68.8144C7.48835 72.8619 7.48835 79.4438 11.4396 83.4929ZM21.1867 73.5086C22.6132 74.966 22.6132 77.3363 21.1867 78.7939C19.7649 80.2513 17.4518 80.2513 16.0285 78.7939C14.6052 77.3365 14.6052 74.9662 16.0285 73.5086C17.4518 72.0544 19.7649 72.0544 21.1867 73.5086Z" fill="#1A3D5B"/>
<path d="M10.2308 30.598C10.2308 31.603 11.0272 32.4169 12.0103 32.4169H40.4429C41.4244 32.4169 42.224 31.603 42.224 30.598C42.224 29.5929 41.4244 28.7773 40.4429 28.7773H12.0105C11.0272 28.7771 10.2308 29.5927 10.2308 30.598Z" fill="#FFD400"/>
<path d="M17.3972 37.9315C17.3972 38.9398 18.1937 39.7538 19.1752 39.7538H47.6107C48.5906 39.7538 49.3871 38.9398 49.3871 37.9315C49.3871 36.9265 48.5906 36.1125 47.6107 36.1125H19.1752C18.1921 36.1142 17.3972 36.9281 17.3972 37.9315Z" fill="#FFD400"/>
<path d="M24.5591 45.2699C24.5591 46.2782 25.3587 47.0921 26.3402 47.0921H54.7758C55.7543 47.0921 56.5521 46.2782 56.5521 45.2699C56.5521 44.2649 55.7541 43.4509 54.7758 43.4509H26.3402C25.3585 43.4509 24.5591 44.2649 24.5591 45.2699Z" fill="#FFD400"/>
</svg>
