<svg width="25" height="25" viewBox="0 0 25 25" fill="none" xmlns="http://www.w3.org/2000/svg">
<path d="M12.5001 6.8999C12.0043 6.8999 11.6025 7.30181 11.6025 7.7975V19.9584C11.6025 20.454 12.0043 20.856 12.5001 20.856C12.9957 20.856 13.3977 20.454 13.3977 19.9584V7.7975C13.3977 7.30181 12.9957 6.8999 12.5001 6.8999Z" fill="#808080"/>
<path d="M21.0452 2.75554H16.6649V0.897594C16.6649 0.401907 16.263 0 15.7673 0H9.23282C8.73713 0 8.33522 0.401907 8.33522 0.897594V2.75554H3.95497C3.45921 2.75554 3.05737 3.15738 3.05737 3.65313C3.05737 4.14889 3.45921 4.55073 3.95497 4.55073H4.76316V24.1024C4.76316 24.598 5.16507 25 5.66075 25H19.3394C19.8351 25 20.237 24.598 20.237 24.1024V4.55073H21.0452C21.5408 4.55073 21.9427 4.14889 21.9427 3.65313C21.9427 3.15738 21.5408 2.75554 21.0452 2.75554ZM10.1304 1.79519H14.8697V2.75554H10.1304V1.79519ZM18.4418 23.2049H6.55835V4.55073H9.23282H15.7673H18.4418V23.2049Z" fill="#808080"/>
</svg>
