<svg width="23" height="13" viewBox="0 0 23 13" fill="none" xmlns="http://www.w3.org/2000/svg">
<path d="M22.878 11.7404C22.8502 11.681 22.8242 11.6316 22.8001 11.5921C22.401 10.8801 21.6385 10.0062 20.5128 8.97013L20.4891 8.94641L20.4771 8.93477L20.4651 8.92285H20.453C19.9422 8.44039 19.6186 8.11599 19.4832 7.94991C19.2353 7.63354 19.1798 7.3133 19.3152 6.98882C19.4109 6.74366 19.7705 6.22593 20.393 5.43491C20.7205 5.01569 20.9798 4.67971 21.1713 4.42657C22.5525 2.60744 23.1514 1.44499 22.9677 0.938763L22.8963 0.820465C22.8484 0.749245 22.7246 0.684092 22.5253 0.624673C22.3255 0.565379 22.0701 0.555573 21.7586 0.595089L18.3099 0.61869C18.254 0.599077 18.1742 0.600905 18.0703 0.624673C17.9665 0.648441 17.9146 0.660366 17.9146 0.660366L17.8546 0.690076L17.8069 0.725768C17.767 0.74937 17.7231 0.79088 17.6751 0.850216C17.6274 0.909344 17.5875 0.978735 17.5557 1.05781C17.1802 2.01479 16.7533 2.90453 16.2742 3.72701C15.9788 4.21744 15.7075 4.64248 15.4597 5.00236C15.2123 5.36211 15.0047 5.62717 14.8372 5.79707C14.6694 5.96715 14.518 6.10339 14.382 6.20632C14.2463 6.30928 14.1426 6.35279 14.0708 6.33687C13.9989 6.32096 13.9312 6.30517 13.867 6.28938C13.7554 6.21816 13.6655 6.1213 13.5978 5.99872C13.5297 5.87615 13.4839 5.72187 13.46 5.536C13.4362 5.35002 13.4221 5.19005 13.418 5.05554C13.4143 4.92121 13.416 4.73119 13.4241 4.48603C13.4324 4.24075 13.4362 4.0748 13.4362 3.98779C13.4362 3.6872 13.4421 3.36098 13.4539 3.00904C13.466 2.65709 13.4758 2.37824 13.484 2.17281C13.4921 1.96717 13.4959 1.7496 13.4959 1.52024C13.4959 1.29087 13.4818 1.11099 13.4539 0.980439C13.4264 0.850049 13.3842 0.723483 13.3285 0.600781C13.2725 0.478203 13.1906 0.383382 13.083 0.316069C12.9753 0.248838 12.8413 0.195485 12.6819 0.155845C12.2587 0.0609823 11.7199 0.00966592 11.0651 0.00168799C9.58027 -0.0141017 8.62619 0.0808854 8.20306 0.286525C8.03542 0.37341 7.88371 0.492123 7.74806 0.642291C7.60432 0.816351 7.58427 0.911339 7.68804 0.926962C8.16712 0.998057 8.50627 1.16813 8.70588 1.43701L8.77781 1.57949C8.83377 1.68229 8.88963 1.86429 8.94554 2.12523C9.00137 2.38618 9.0374 2.67484 9.05325 2.99104C9.0931 3.56849 9.0931 4.06279 9.05325 4.47398C9.01328 4.88535 8.97553 5.20559 8.9395 5.43495C8.90347 5.66432 8.84962 5.85018 8.77781 5.99249C8.70588 6.13485 8.65802 6.22186 8.63403 6.25344C8.61008 6.28502 8.59012 6.30492 8.57426 6.31273C8.47049 6.35212 8.36257 6.37219 8.25088 6.37219C8.13902 6.37219 8.00337 6.31676 7.84373 6.20599C7.68414 6.09521 7.51851 5.94305 7.34683 5.74925C7.17516 5.55541 6.98155 5.28453 6.76592 4.93658C6.55046 4.58863 6.3269 4.17739 6.09537 3.70287L5.90381 3.35874C5.78407 3.13735 5.62049 2.81499 5.41291 2.39195C5.20521 1.96875 5.02162 1.55938 4.86203 1.16393C4.79823 0.997849 4.70239 0.871408 4.57467 0.784398L4.51474 0.748705C4.47489 0.717126 4.41093 0.683593 4.32318 0.647859C4.23531 0.612166 4.14362 0.58657 4.04774 0.570822L0.766556 0.594423C0.431261 0.594423 0.203761 0.669673 0.0839705 0.819966L0.0360293 0.891061C0.0120797 0.93066 0 0.993902 0 1.08095C0 1.16796 0.0239496 1.27475 0.0718908 1.40119C0.550883 2.51644 1.07178 3.59201 1.63457 4.62806C2.19737 5.66411 2.68643 6.49868 3.10146 7.13101C3.51657 7.7638 3.93969 8.36102 4.37083 8.92239C4.80196 9.48396 5.08735 9.84384 5.22698 10.0019C5.36677 10.1603 5.47658 10.2788 5.5564 10.3578L5.85583 10.6425C6.04743 10.8324 6.32878 11.0597 6.70002 11.3246C7.07135 11.5897 7.48243 11.8506 7.93349 12.1079C8.38464 12.3647 8.90947 12.5743 9.5083 12.7364C10.107 12.8986 10.6898 12.9638 11.2567 12.9323H12.6338C12.9131 12.9084 13.1247 12.8214 13.2686 12.6713L13.3162 12.6118C13.3482 12.5646 13.3782 12.4913 13.4059 12.3926C13.4339 12.2937 13.4479 12.1848 13.4479 12.0664C13.4397 11.7263 13.4658 11.4199 13.5255 11.1471C13.5852 10.8743 13.6533 10.6687 13.7293 10.5302C13.8054 10.3918 13.8912 10.2751 13.9867 10.1804C14.0824 10.0855 14.1506 10.0281 14.1906 10.0083C14.2304 9.9884 14.2622 9.97489 14.2861 9.96679C14.4777 9.90355 14.7032 9.9648 14.9629 10.1508C15.2224 10.3367 15.4658 10.5662 15.6935 10.8389C15.921 11.1119 16.1944 11.4182 16.5137 11.7582C16.8332 12.0984 17.1125 12.3512 17.3519 12.5175L17.5913 12.6599C17.7512 12.7549 17.9588 12.8419 18.2143 12.921C18.4694 13 18.6928 13.0198 18.8847 12.9802L21.9502 12.9329C22.2534 12.9329 22.4894 12.8831 22.6567 12.7845C22.8244 12.6856 22.924 12.5767 22.9562 12.4582C22.9882 12.3396 22.9899 12.2051 22.9622 12.0547C22.9338 11.9046 22.9059 11.7997 22.878 11.7404Z" fill="#7E7E7E"/>
</svg>
