<svg width="34" height="34" viewBox="0 0 34 34" fill="none" xmlns="http://www.w3.org/2000/svg">
<path fill-rule="evenodd" clip-rule="evenodd" d="M16.2917 0C25.2832 0 32.5833 7.30008 32.5833 16.2917C32.5833 25.2832 25.2832 32.5833 16.2917 32.5833C7.30008 32.5833 0 25.2832 0 16.2917C0 7.30008 7.30008 0 16.2917 0ZM16.2917 1.41667C24.5012 1.41667 31.1667 8.08208 31.1667 16.2917C31.1667 24.5012 24.5012 31.1667 16.2917 31.1667C8.08208 31.1667 1.41667 24.5012 1.41667 16.2917C1.41667 8.08208 8.08208 1.41667 16.2917 1.41667ZM17 15.5833H25.5V17H17V25.5H15.5833V17H7.08333V15.5833H15.5833V7.08333H17V15.5833Z" fill="black"/>
</svg>
